<svg width="88" height="93" viewBox="0 0 88 93" fill="none" xmlns="http://www.w3.org/2000/svg">
<path fill-rule="evenodd" clip-rule="evenodd" d="M66.4675 93H0.0166016V0H73.7677V86.9426C73.7677 90.2882 70.499 93 66.4675 93Z" fill="#D2E0F4"/>
<path fill-rule="evenodd" clip-rule="evenodd" d="M0 0H73.6279V4.3177H0V0Z" fill="#4D5995"/>
<path fill-rule="evenodd" clip-rule="evenodd" d="M85.6296 37.5816L87.027 34.4155L85.4846 33.7346C85.6026 33.053 85.6178 32.3669 85.5377 31.6969L87.0108 31.1257L85.7613 27.8992L84.2965 28.467C83.9057 27.9119 83.4316 27.4106 82.8832 26.9821C83.2123 26.2369 83.5557 25.4583 83.5557 25.4583L80.3898 24.0609L79.7174 25.5847C79.0305 25.4675 78.3412 25.4556 77.6678 25.5409L77.1001 24.0769L73.8735 25.3274L74.4447 26.8005C73.8954 27.193 73.3993 27.6663 72.9749 28.2139L71.4324 27.533L70.0352 30.698L71.5894 31.3848C71.4772 32.0615 71.4679 32.7424 71.5514 33.4065L70.0512 33.9878L71.3016 37.2144L72.812 36.6289C73.1985 37.1704 73.6633 37.6616 74.2017 38.0818L73.5064 39.6553L76.6723 41.0526C76.6723 41.0526 77.0316 40.2384 77.3666 39.479C78.0401 39.593 78.7158 39.6056 79.3765 39.5271L79.9621 41.0375L83.1886 39.787L82.6073 38.2859C83.1541 37.9004 83.6502 37.4346 84.0755 36.8945L85.6296 37.5816ZM76.6149 36.898C74.2034 35.8331 73.1114 33.0159 74.1763 30.6043C75.2403 28.1929 78.0586 27.1011 80.4691 28.1651C82.8806 29.2298 83.9734 32.0471 82.9084 34.4586C81.8445 36.8701 79.0264 37.9619 76.6149 36.898Z" fill="#4D5995"/>
<path fill-rule="evenodd" clip-rule="evenodd" d="M59.4119 26.5435L60.8092 23.3776L59.2667 22.6967C59.3858 22.0149 59.4 21.329 59.32 20.6591L60.794 20.0878L59.5427 16.8613L58.0787 17.4291C57.6881 16.8739 57.2139 16.3718 56.6654 15.9432C56.9945 15.199 57.3379 14.4202 57.3379 14.4202L54.1721 13.0229L53.4996 14.546C52.8136 14.4294 52.1226 14.4186 51.4492 14.5029L50.8822 13.0389L47.6556 14.2894L48.2269 15.7635C47.6776 16.155 47.1815 16.6284 46.7571 17.1759L45.2146 16.4941L43.8174 19.6609L45.3716 20.3461C45.2593 21.0236 45.25 21.7045 45.3336 22.3685L43.8334 22.9498L45.0839 26.1764L46.5943 25.5908C46.9806 26.1333 47.4456 26.6237 47.9839 27.0438L47.2886 28.6174L50.4545 30.0148C50.4545 30.0148 50.8139 29.2004 51.1498 28.4412C51.8223 28.5559 52.4989 28.5686 53.1587 28.4893L53.7443 29.9995L56.9708 28.7491L56.3895 27.248C56.9363 26.8624 57.4332 26.3966 57.8577 25.8575L59.4119 26.5435ZM50.3971 25.86C47.9856 24.796 46.8937 21.9779 47.9586 19.5663C49.0226 17.1548 51.84 16.063 54.2523 17.1278C56.6628 18.1918 57.7548 21.0092 56.6908 23.4207C55.6268 25.8322 52.8085 26.924 50.3971 25.86Z" fill="#4D5995"/>
<path fill-rule="evenodd" clip-rule="evenodd" d="M72.6526 42.6801V37.4714H70.1138C69.8631 36.4597 69.4665 35.5064 68.9485 34.6322L70.631 32.9497L66.948 29.2666L65.2764 30.9374C64.4005 30.4116 63.4429 30.0083 62.4262 29.7518V27.245H57.2177V29.7518C56.2008 30.0083 55.2432 30.4116 54.3673 30.9374L52.6959 29.2666L49.0128 32.9497L50.6953 34.6322C50.1772 35.5064 49.7806 36.4597 49.53 37.4714H46.9912V42.6801H49.5494C49.8068 43.6807 50.2067 44.6249 50.7266 45.4882L49.0128 47.2018L52.6959 50.8849L54.4205 49.1602C55.282 49.6714 56.2211 50.0647 57.2177 50.3162V52.9065H62.4262V50.3162C63.4227 50.0647 64.3617 49.6714 65.2233 49.1602L66.948 50.8849L70.631 47.2018L68.9181 45.4882C69.437 44.6249 69.8378 43.6807 70.0952 42.6801H72.6526ZM59.8223 47.5916C55.6482 47.5916 52.2648 44.2073 52.2648 40.0339C52.2648 35.8599 55.6482 32.4764 59.8223 32.4764C63.9956 32.4764 67.3799 35.8599 67.3799 40.0339C67.3799 44.2073 63.9956 47.5916 59.8223 47.5916Z" fill="white"/>
<path fill-rule="evenodd" clip-rule="evenodd" d="M21.9961 72.1394H27.7327V83.6067H21.9961V72.1394Z" fill="#4D5995"/>
<path fill-rule="evenodd" clip-rule="evenodd" d="M21.9961 62.72H27.7701V73.3466H21.9961V62.72Z" fill="white"/>
<path fill-rule="evenodd" clip-rule="evenodd" d="M9.98047 71.4928H15.717V83.6067H9.98047V71.4928Z" fill="#4D5995"/>
<path fill-rule="evenodd" clip-rule="evenodd" d="M9.98047 70.415H15.717V78.4551H9.98047V70.415Z" fill="white"/>
<path fill-rule="evenodd" clip-rule="evenodd" d="M34.0488 60.974H39.7854V73.9862H34.0488V60.974Z" fill="white"/>
<path fill-rule="evenodd" clip-rule="evenodd" d="M34.0488 67.2734H39.7854V83.542H34.0488V67.2734Z" fill="#4D5995"/>
<path fill-rule="evenodd" clip-rule="evenodd" d="M46.0645 60.974H51.801V73.9862H46.0645V60.974Z" fill="white"/>
<path fill-rule="evenodd" clip-rule="evenodd" d="M46.0645 65.0598H51.801V83.5419H46.0645V65.0598Z" fill="#4D5995"/>
<path fill-rule="evenodd" clip-rule="evenodd" d="M58.0801 60.974H63.8167V73.9862H58.0801V60.974Z" fill="white"/>
<path fill-rule="evenodd" clip-rule="evenodd" d="M58.0801 62.72H63.8167V83.5421H58.0801V62.72Z" fill="#4D5995"/>
<path fill-rule="evenodd" clip-rule="evenodd" d="M9.19141 15.7176C9.19141 14.6823 10.0307 13.843 11.066 13.843H30.7982C31.8335 13.843 32.6727 14.6823 32.6727 15.7176C32.6727 16.7529 31.8335 17.5921 30.7982 17.5921H11.066C10.0307 17.5921 9.19141 16.7529 9.19141 15.7176Z" fill="#4D5995"/>
<path fill-rule="evenodd" clip-rule="evenodd" d="M9.19141 21.6373C9.19141 20.602 10.0307 19.7627 11.066 19.7627H30.7982C31.8335 19.7627 32.6727 20.602 32.6727 21.6373C32.6727 22.6725 31.8335 23.5118 30.7982 23.5118H11.066C10.0307 23.5118 9.19141 22.6725 9.19141 21.6373Z" fill="#4D5995"/>
<path fill-rule="evenodd" clip-rule="evenodd" d="M9.125 34.7422C9.125 34.4245 9.38255 34.167 9.70026 34.167H34.2906C34.6083 34.167 34.8659 34.4245 34.8659 34.7422C34.8659 35.06 34.6083 35.3175 34.2906 35.3175H9.70026C9.38255 35.3175 9.125 35.06 9.125 34.7422Z" fill="white"/>
<path fill-rule="evenodd" clip-rule="evenodd" d="M9.125 30.569C9.125 30.2513 9.38255 29.9938 9.70026 29.9938H34.2906C34.6083 29.9938 34.8659 30.2513 34.8659 30.569C34.8659 30.8867 34.6083 31.1443 34.2906 31.1443H9.70026C9.38255 31.1443 9.125 30.8867 9.125 30.569Z" fill="white"/>
<path fill-rule="evenodd" clip-rule="evenodd" d="M9.125 38.7596C9.125 38.4419 9.38255 38.1843 9.70026 38.1843H34.2906C34.6083 38.1843 34.8659 38.4419 34.8659 38.7596C34.8659 39.0773 34.6083 39.3348 34.2906 39.3348H9.70026C9.38255 39.3348 9.125 39.0773 9.125 38.7596Z" fill="white"/>
<path fill-rule="evenodd" clip-rule="evenodd" d="M9.125 47.5644C9.125 47.2467 9.38255 46.9891 9.70026 46.9891H34.2906C34.6083 46.9891 34.8659 47.2467 34.8659 47.5644C34.8659 47.8821 34.6083 48.1396 34.2906 48.1396H9.70026C9.38255 48.1396 9.125 47.8821 9.125 47.5644Z" fill="white"/>
<path fill-rule="evenodd" clip-rule="evenodd" d="M9.125 43.3912C9.125 43.0735 9.38255 42.8159 9.70026 42.8159H34.2906C34.6083 42.8159 34.8659 43.0735 34.8659 43.3912C34.8659 43.7089 34.6083 43.9664 34.2906 43.9664H9.70026C9.38255 43.9664 9.125 43.7089 9.125 43.3912Z" fill="white"/>
<path fill-rule="evenodd" clip-rule="evenodd" d="M9.125 51.5817C9.125 51.264 9.38255 51.0065 9.70026 51.0065H34.2906C34.6083 51.0065 34.8659 51.264 34.8659 51.5817C34.8659 51.8994 34.6083 52.157 34.2906 52.157H9.70026C9.38255 52.157 9.125 51.8994 9.125 51.5817Z" fill="white"/>
<circle cx="3" cy="2" r="1" fill="#D9D9D9"/>
<circle cx="6" cy="2" r="1" fill="#D9D9D9"/>
<circle cx="9" cy="2" r="1" fill="#D9D9D9"/>
</svg>
