<svg width="87" height="93" viewBox="0 0 87 93" fill="none" xmlns="http://www.w3.org/2000/svg">
<path fill-rule="evenodd" clip-rule="evenodd" d="M28.9299 58.0409C44.9074 58.0409 57.8597 45.0885 57.8597 29.111C57.8597 13.1335 44.9074 0.181152 28.9299 0.181152C12.9523 0.181152 0 13.1335 0 29.111C0 45.0885 12.9523 58.0409 28.9299 58.0409Z" fill="#D2E0F4"/>
<mask id="mask0_1489_30113" style="mask-type:luminance" maskUnits="userSpaceOnUse" x="0" y="0" width="58" height="59">
<path fill-rule="evenodd" clip-rule="evenodd" d="M28.9299 58.0409C44.9074 58.0409 57.8597 45.0885 57.8597 29.111C57.8597 13.1335 44.9074 0.181152 28.9299 0.181152C12.9523 0.181152 0 13.1335 0 29.111C0 45.0885 12.9523 58.0409 28.9299 58.0409Z" fill="white"/>
</mask>
<g mask="url(#mask0_1489_30113)">
<path fill-rule="evenodd" clip-rule="evenodd" d="M20.27 47.3249H20.275C20.8168 46.9142 21.3845 46.5502 21.9814 46.2205C21.9964 46.2104 22.0122 46.2004 22.0323 46.1954C24.8573 44.636 26.7707 41.629 26.7707 38.1712L31.0492 38.1511C31.0492 41.619 32.9776 44.641 35.8285 46.1954C35.8285 46.1954 35.8335 46.1954 35.8385 46.2004C36.4404 46.5302 37.0181 46.8992 37.5649 47.304C41.1087 49.9421 43.402 54.1596 43.402 58.918H14.458C14.458 54.1696 16.7412 49.9621 20.27 47.3249Z" fill="white"/>
<path fill-rule="evenodd" clip-rule="evenodd" d="M14.459 58.9165H43.4021C43.4021 54.158 41.1089 49.9405 37.5651 47.3025C37.0183 46.8976 36.4414 46.5278 35.8387 46.1988C35.8337 46.1939 35.8286 46.1939 35.8286 46.1939C35.3628 45.9359 34.917 45.6421 34.5071 45.3081C33.0896 46.7607 31.1103 47.6623 28.918 47.6623C26.7308 47.6623 24.7564 46.7607 23.3389 45.3132C22.9341 45.647 22.4933 45.9409 22.0324 46.1939C22.0124 46.1989 21.9974 46.2089 21.9823 46.2189C21.3846 46.5487 20.8178 46.9127 20.276 47.3234H20.271C16.7422 49.9606 14.459 54.1681 14.459 58.9165L14.459 58.9165Z" fill="#4D5995"/>
<path fill-rule="evenodd" clip-rule="evenodd" d="M40.0376 16.5801V27.9478C40.0376 35.6365 33.2873 41.87 28.9303 41.87C24.5726 41.87 17.8223 35.6365 17.8223 27.9478V16.5801H40.0376Z" fill="white"/>
<path fill-rule="evenodd" clip-rule="evenodd" d="M19.6322 14.4879C22.0532 11.4567 25.728 9.51904 29.8386 9.51904C37.1417 9.51904 43.0563 15.6149 43.0563 23.1324C43.0563 27.1229 41.3934 30.71 38.7378 33.1978C39.4215 31.4814 39.8039 29.5571 39.8039 27.5244C39.8039 24.2585 38.8113 21.2683 37.1617 18.9675C35.4119 19.7456 32.5752 20.0277 29.463 19.5978C26.3783 19.1754 23.7495 18.1561 22.2677 16.9423C19.5646 19.3298 17.8081 23.1791 17.8081 27.5244C17.8081 29.7508 18.2639 31.8437 19.082 33.6812C16.4732 32.6017 14.5557 28.7524 14.5557 24.1718C14.5557 19.2697 16.7554 15.2258 19.6322 14.4879H19.6322Z" fill="#21307A"/>
</g>
<path fill-rule="evenodd" clip-rule="evenodd" d="M43.6424 91.8509C52.1676 91.8509 59.0787 84.9398 59.0787 76.4146C59.0787 67.8893 52.1676 60.9783 43.6424 60.9783C35.1171 60.9783 28.2061 67.8893 28.2061 76.4146C28.2061 84.9398 35.1171 91.8509 43.6424 91.8509Z" fill="#E8E3DD"/>
<path fill-rule="evenodd" clip-rule="evenodd" d="M43.6424 91.8509C52.1676 91.8509 59.0787 84.9398 59.0787 76.4146C59.0787 67.8893 52.1676 60.9783 43.6424 60.9783C35.1171 60.9783 28.2061 67.8893 28.2061 76.4146C28.2061 84.9398 35.1171 91.8509 43.6424 91.8509Z" fill="#A6ACCA"/>
<mask id="mask1_1489_30113" style="mask-type:luminance" maskUnits="userSpaceOnUse" x="28" y="60" width="32" height="32">
<path fill-rule="evenodd" clip-rule="evenodd" d="M43.6424 91.8509C52.1676 91.8509 59.0787 84.9398 59.0787 76.4146C59.0787 67.8893 52.1676 60.9783 43.6424 60.9783C35.1171 60.9783 28.2061 67.8893 28.2061 76.4146C28.2061 84.9398 35.1171 91.8509 43.6424 91.8509Z" fill="white"/>
</mask>
<g mask="url(#mask1_1489_30113)">
<path fill-rule="evenodd" clip-rule="evenodd" d="M48.2628 86.1328H48.2603C47.9715 85.914 47.6684 85.7196 47.3495 85.5434C47.342 85.5384 47.3337 85.5333 47.3228 85.53C45.816 84.6986 44.7941 83.094 44.7941 81.2482L42.5117 81.2383C42.5117 83.0882 41.4824 84.7011 39.9614 85.53L39.9564 85.5333C39.635 85.7087 39.3269 85.9057 39.0347 86.1219C37.1439 87.5294 35.9209 89.7792 35.9209 92.3188H51.3642C51.3642 89.7851 50.1461 87.5403 48.2628 86.1328L48.2628 86.1328Z" fill="white"/>
<path fill-rule="evenodd" clip-rule="evenodd" d="M51.364 92.3174H35.9199C35.9199 89.7779 37.1438 87.528 39.0346 86.1205C39.3268 85.9043 39.6349 85.7073 39.9562 85.5312L39.9613 85.5286C40.2101 85.3909 40.448 85.2348 40.6667 85.0562C41.423 85.8317 42.4791 86.3126 43.6487 86.3126C44.8157 86.3126 45.8693 85.8317 46.6256 85.0587C46.8418 85.2373 47.0764 85.3934 47.3227 85.5286C47.3335 85.5312 47.3419 85.537 47.3494 85.5421C47.6683 85.7182 47.9713 85.9127 48.2602 86.1314H48.2627C50.1452 87.5389 51.364 89.7838 51.364 92.3174Z" fill="#E8E3DD"/>
<path fill-rule="evenodd" clip-rule="evenodd" d="M37.7158 69.7283V75.7932C37.7158 79.8964 41.3172 83.2223 43.6422 83.2223C45.9672 83.2223 49.5694 79.8964 49.5694 75.7932V69.7283H37.7158Z" fill="white"/>
<path fill-rule="evenodd" clip-rule="evenodd" d="M48.6034 68.6124C47.3119 66.9945 45.3509 65.9602 43.157 65.9602C39.2609 65.9602 36.1045 69.2135 36.1045 73.2248C36.1045 75.3536 36.9919 77.2678 38.4094 78.5952C38.0438 77.6794 37.8401 76.6525 37.8401 75.5681C37.8401 73.8258 38.3693 72.2297 39.2501 71.0024C40.1842 71.4174 41.6977 71.5676 43.3574 71.3389C45.0036 71.1135 46.4061 70.5692 47.1975 69.9214C48.6392 71.1953 49.5768 73.2498 49.5768 75.5681C49.5768 76.7561 49.3338 77.8722 48.8972 78.8532C50.2889 78.2771 51.3123 76.2226 51.3123 73.7791C51.3123 71.1636 50.1386 69.0056 48.6034 68.6124H48.6034Z" fill="#21307A"/>
</g>
<path fill-rule="evenodd" clip-rule="evenodd" d="M72.5488 67.0133C80.2775 67.0133 86.5429 60.748 86.5429 53.0192C86.5429 45.2905 80.2775 39.0251 72.5488 39.0251C64.8201 39.0251 58.5547 45.2905 58.5547 53.0192C58.5547 60.748 64.8201 67.0133 72.5488 67.0133Z" fill="#D2E0F4"/>
<mask id="mask2_1489_30113" style="mask-type:luminance" maskUnits="userSpaceOnUse" x="58" y="39" width="29" height="29">
<path fill-rule="evenodd" clip-rule="evenodd" d="M72.5488 67.0133C80.2775 67.0133 86.5429 60.748 86.5429 53.0192C86.5429 45.2905 80.2775 39.0251 72.5488 39.0251C64.8201 39.0251 58.5547 45.2905 58.5547 53.0192C58.5547 60.748 64.8201 67.0133 72.5488 67.0133Z" fill="white"/>
</mask>
<g mask="url(#mask2_1489_30113)">
<path fill-rule="evenodd" clip-rule="evenodd" d="M68.3595 61.8302H68.362C68.6242 61.6315 68.898 61.4554 69.1868 61.2959C69.1943 61.2917 69.2018 61.2867 69.2119 61.2842C70.5785 60.5295 71.5043 59.0753 71.5043 57.4023L73.5729 57.3923C73.5729 59.0703 74.5063 60.532 75.8854 61.2842L75.8904 61.2867C76.1818 61.4453 76.4606 61.624 76.7252 61.8201C78.4391 63.0966 79.5486 65.1361 79.5486 67.4385H65.5479C65.5479 65.1411 66.6523 63.1058 68.3595 61.8302Z" fill="white"/>
<path fill-rule="evenodd" clip-rule="evenodd" d="M65.5479 67.4376H79.5486C79.5486 65.1353 78.4399 63.0958 76.7252 61.8193C76.4606 61.624 76.1818 61.4446 75.8904 61.2859L75.8854 61.2834C75.66 61.1582 75.4446 61.0162 75.2459 60.8542C74.5605 61.5572 73.603 61.993 72.5428 61.993C71.4842 61.993 70.5292 61.5572 69.8438 60.8568C69.6476 61.0188 69.4348 61.1606 69.2119 61.2834C69.2018 61.2859 69.1943 61.2909 69.1877 61.295C68.898 61.4546 68.6241 61.6307 68.362 61.8293H68.3595C66.6523 63.105 65.5479 65.1403 65.5479 67.4376Z" fill="#B0BFB6"/>
<path fill-rule="evenodd" clip-rule="evenodd" d="M77.9215 46.9583V52.4564C77.9215 56.1763 74.6566 59.1917 72.5486 59.1917C70.4407 59.1917 67.1758 56.1763 67.1758 52.4564V46.9583H77.9215Z" fill="white"/>
<path fill-rule="evenodd" clip-rule="evenodd" d="M68.0509 45.9457C69.2222 44.4797 70.9995 43.5422 72.988 43.5422C76.5209 43.5422 79.3819 46.4908 79.3819 50.1273C79.3819 52.0574 78.5771 53.793 77.2931 54.9968C77.6237 54.1661 77.8091 53.2354 77.8091 52.2519C77.8091 50.6724 77.3282 49.2256 76.5309 48.1129C75.6836 48.4894 74.312 48.6254 72.8068 48.4176C71.3142 48.2139 70.0428 47.7205 69.3256 47.1336C68.0184 48.2882 67.1685 50.1498 67.1685 52.2519C67.1685 53.3288 67.3889 54.3415 67.7845 55.2305C66.5232 54.708 65.5957 52.8455 65.5957 50.6298C65.5957 48.259 66.6592 46.303 68.0509 45.9457V45.9457Z" fill="#21307A"/>
</g>
<path fill-rule="evenodd" clip-rule="evenodd" d="M79.2426 92.0706C83.3315 92.0706 86.6463 88.7559 86.6463 84.6669C86.6463 80.5779 83.3315 77.2632 79.2426 77.2632C75.1536 77.2632 71.8389 80.5779 71.8389 84.6669C71.8389 88.7559 75.1536 92.0706 79.2426 92.0706Z" fill="#4D5995"/>
<path fill-rule="evenodd" clip-rule="evenodd" d="M78.7402 88.0979L78.7716 81.9217L79.7716 81.9268L79.7402 88.103L78.7402 88.0979Z" fill="white"/>
<path fill-rule="evenodd" clip-rule="evenodd" d="M76.2598 85.4019L76.2648 84.4019L82.441 84.4329L82.436 85.4329L76.2598 85.4019Z" fill="white"/>
</svg>
