<svg width="88" height="94" viewBox="0 0 88 94" fill="none" xmlns="http://www.w3.org/2000/svg">
<path fill-rule="evenodd" clip-rule="evenodd" d="M0 5.49999C0 2.73857 2.23858 0.5 5 0.5H53.8913C56.6527 0.5 58.8913 2.73858 58.8913 5.5V67.5766C58.8913 70.338 56.6527 72.5766 53.8913 72.5766H5C2.23858 72.5766 0 70.338 0 67.5766V5.49999Z" fill="#D2E0F4"/>
<path fill-rule="evenodd" clip-rule="evenodd" d="M28.7305 26.4226C28.7305 23.6612 30.969 21.4226 33.7305 21.4226H82.6217C85.3832 21.4226 87.6217 23.6612 87.6217 26.4226V88.4992C87.6217 91.2606 85.3832 93.4992 82.6217 93.4992H33.7305C30.969 93.4992 28.7305 91.2606 28.7305 88.4992V26.4226Z" fill="#D2E0F4"/>
<path fill-rule="evenodd" clip-rule="evenodd" d="M73.7657 82.2333L18.249 86.1548C16.8183 86.2557 15.5633 85.3382 15.4458 84.1052L9.03811 16.7346C8.92092 15.5016 9.98577 14.4202 11.4165 14.3191L66.9333 10.3976C68.3639 10.2967 69.619 11.2142 69.7362 12.4472L76.1443 79.8178C76.2613 81.0508 75.1965 82.1322 73.7657 82.2333H73.7657Z" fill="#4D5995"/>
<path fill-rule="evenodd" clip-rule="evenodd" d="M69.6484 80.8379L14.0109 83.1595C12.5769 83.2194 11.3582 82.266 11.2887 81.0303L7.49529 13.5131C7.42583 12.2774 8.53197 11.2271 9.96599 11.1673L65.6036 8.84569C67.0375 8.78586 68.2565 9.73923 68.3257 10.9749L72.1193 78.4921C72.1885 79.7278 71.0824 80.7781 69.6484 80.8379L69.6484 80.8379Z" fill="#E8E3DD"/>
<path fill-rule="evenodd" clip-rule="evenodd" d="M8.75488 12.5215C8.75488 9.76005 10.9935 7.52148 13.7549 7.52148H62.6461C65.4076 7.52148 67.6462 9.76006 67.6462 12.5215V74.5981C67.6462 77.3595 65.4076 79.5981 62.6462 79.5981H13.7549C10.9935 79.5981 8.75488 77.3595 8.75488 74.5981V12.5215Z" fill="white"/>
<path fill-rule="evenodd" clip-rule="evenodd" d="M16.4136 4.48401H15.7952C14.1834 4.48401 12.8721 5.78722 12.8721 7.38933V7.58737H13.9629V7.38933C13.9629 6.38504 14.7849 5.56816 15.7952 5.56816H16.4136C17.4241 5.56816 18.2459 6.38505 18.2459 7.38933V13.0536C18.2459 14.0579 17.4241 14.8748 16.4136 14.8748H15.7952C14.785 14.8748 13.9629 14.0579 13.9629 13.0536V11.5355H12.8721V13.0536C12.8721 14.6557 14.1834 15.9589 15.7952 15.9589H16.4136C18.0253 15.9589 19.3367 14.6557 19.3367 13.0536V7.38933C19.3367 5.78722 18.0253 4.48401 16.4136 4.48401Z" fill="#4D5995"/>
<path fill-rule="evenodd" clip-rule="evenodd" d="M28.5879 37.8216C28.5879 37.5033 28.846 37.2452 29.1643 37.2452H53.8036C54.122 37.2452 54.38 37.5033 54.38 37.8216C54.38 38.14 54.122 38.398 53.8036 38.398H29.1643C28.846 38.398 28.5879 38.14 28.5879 37.8216Z" fill="#D2E0F4"/>
<path fill-rule="evenodd" clip-rule="evenodd" d="M28.5879 33.6401C28.5879 33.3218 28.846 33.0637 29.1643 33.0637H53.8036C54.122 33.0637 54.38 33.3218 54.38 33.6401C54.38 33.9585 54.122 34.2165 53.8036 34.2165H29.1643C28.846 34.2165 28.5879 33.9585 28.5879 33.6401Z" fill="#D2E0F4"/>
<path fill-rule="evenodd" clip-rule="evenodd" d="M28.5879 41.847C28.5879 41.5287 28.846 41.2706 29.1643 41.2706H53.8036C54.122 41.2706 54.38 41.5287 54.38 41.847C54.38 42.1654 54.122 42.4234 53.8036 42.4234H29.1643C28.846 42.4234 28.5879 42.1654 28.5879 41.847Z" fill="#D2E0F4"/>
<path fill-rule="evenodd" clip-rule="evenodd" d="M28.5879 48.2464C28.5879 47.9281 28.846 47.67 29.1643 47.67H53.8036C54.122 47.67 54.38 47.9281 54.38 48.2464C54.38 48.5648 54.122 48.8228 53.8036 48.8228H29.1643C28.846 48.8228 28.5879 48.5648 28.5879 48.2464Z" fill="#D2E0F4"/>
<path fill-rule="evenodd" clip-rule="evenodd" d="M28.5879 52.2718C28.5879 51.9535 28.846 51.6954 29.1643 51.6954H53.8036C54.122 51.6954 54.38 51.9535 54.38 52.2718C54.38 52.5902 54.122 52.8482 53.8036 52.8482H29.1643C28.846 52.8482 28.5879 52.5902 28.5879 52.2718Z" fill="#D2E0F4"/>
<path fill-rule="evenodd" clip-rule="evenodd" d="M27.668 64.981H30.118V65.981H27.668V64.981Z" fill="#21307A"/>
<path fill-rule="evenodd" clip-rule="evenodd" d="M27.668 65.8115H30.118V66.8115H27.668V65.8115Z" fill="#21307A"/>
<path fill-rule="evenodd" clip-rule="evenodd" d="M27.668 66.6418H30.118V67.6418H27.668V66.6418Z" fill="#21307A"/>
<path fill-rule="evenodd" clip-rule="evenodd" d="M28.8928 70.8798C26.2004 70.8798 24.0098 68.6895 24.0098 65.9971C24.0098 63.3046 26.2004 61.114 28.8928 61.114C31.5853 61.114 33.7756 63.3046 33.7756 65.9971C33.7756 68.6895 31.5853 70.8798 28.8928 70.8798ZM28.8928 61.4849C26.4048 61.4849 24.3806 63.509 24.3806 65.9971C24.3806 68.485 26.4048 70.5089 28.8928 70.5089C31.3807 70.5089 33.4049 68.485 33.4049 65.9971C33.4049 63.509 31.3807 61.4849 28.8928 61.4849Z" fill="#21307A"/>
<path fill-rule="evenodd" clip-rule="evenodd" d="M29.0937 70.5919C28.9275 70.5919 28.7629 70.5828 28.6003 70.564L28.6459 69.5932C28.9459 69.6282 29.2545 69.6269 29.554 69.5919L29.6003 70.5626C29.4328 70.5821 29.2641 70.5919 29.0937 70.5919ZM28.319 70.3555C28.0224 70.2717 27.7283 70.159 27.4446 70.02L27.6522 69.3555C27.9093 69.4816 28.1761 69.5839 28.4446 69.6595L28.319 70.3555ZM29.8256 70.3525L29.6986 69.6576C29.9679 69.581 30.234 69.4779 30.4899 69.3525L30.6986 70.0158C30.4162 70.1545 30.1226 70.2675 29.8256 70.3525ZM27.144 69.8187C26.8907 69.6608 26.6466 69.4806 26.4178 69.2827L26.7594 68.8187C26.9671 68.9977 27.1882 69.1616 27.4178 69.3045L27.144 69.8187ZM30.9726 69.815L30.6975 69.3018C30.9265 69.1581 31.1478 68.9943 31.3552 68.815L31.6975 69.2788C31.469 69.4763 31.2253 69.6567 30.9726 69.815V69.815ZM26.1885 69.0325C25.9791 68.8178 25.7847 68.5859 25.611 68.3438L26.0869 68.0325C26.2447 68.2519 26.4208 68.4625 26.611 68.6572L26.1885 69.0325ZM31.9601 69.0271L31.5366 68.6526C31.7265 68.4573 31.9026 68.247 32.0597 68.0271L32.5366 68.3376C32.3634 68.5798 32.1695 68.8119 31.9601 69.0271H31.9601ZM25.4899 68.0658C25.334 67.7972 25.2009 67.5166 25.0948 67.2323L25.7367 67.0658C25.8325 67.3244 25.9532 67.5785 26.0948 67.8217L25.4899 68.0658ZM32.7482 68.0594L32.1423 67.8157C32.2836 67.5729 32.4037 67.3179 32.4995 67.0594L33.1423 67.2243C33.0366 67.5097 32.9039 67.7907 32.7482 68.0594L32.7482 68.0594ZM25.0264 67.0039C24.9548 66.6757 24.9182 66.3395 24.917 66.0051L25.8178 66.0039C25.8184 66.3075 25.8521 66.6127 25.917 66.9101L25.0264 67.0039ZM33.3517 66.9816L32.4583 66.8917C32.523 66.6007 32.5554 66.3036 32.5554 66.0069L33.4583 65.9816V66.0069C33.4583 66.3332 33.4222 66.6613 33.3518 66.9816L33.3517 66.9816ZM25.7162 65.8327L24.9598 65.7473C25.019 65.4393 25.1096 65.1315 25.2284 64.8327L25.9598 65.0036C25.8517 65.2742 25.7695 65.5531 25.7162 65.8327H25.7162ZM32.5839 65.8105C32.5282 65.5318 32.4445 65.2538 32.335 64.9848L33.0609 64.8105C33.1817 65.1078 33.2738 65.4142 33.335 65.7222L32.5839 65.8105ZM25.8607 64.7642L25.3062 64.5269C25.4475 64.2639 25.6127 64.0073 25.7975 63.7642L26.3062 64.0725C26.1386 64.2933 25.9885 64.5261 25.8607 64.7642ZM32.3138 64.7456C32.1838 64.5072 32.0328 64.2753 31.8652 64.0566L32.3702 63.7456C32.5555 63.9863 32.7219 64.242 32.8652 64.5053L32.3138 64.7456ZM26.3812 63.8939L25.9722 63.5107C26.1733 63.2894 26.3926 63.082 26.6239 62.8939L26.9722 63.3343C26.7627 63.5048 26.5637 63.6929 26.3812 63.8939ZM31.7256 63.8803C31.5414 63.6801 31.3415 63.4929 31.1316 63.3235L31.4772 62.8803C31.7086 63.0672 31.9288 63.2738 32.1316 63.4939L31.7256 63.8803ZM27.174 63.2988L26.8959 62.7457C27.1516 62.5738 27.4197 62.4232 27.6927 62.2988L27.8959 62.8936C27.6488 63.0062 27.4056 63.1431 27.174 63.2988ZM30.9243 63.2901C30.6928 63.1361 30.4491 63.0002 30.1998 62.8882L30.4004 62.2901C30.6753 62.4146 30.9446 62.5642 31.1998 62.7339L30.9243 63.2901ZM28.1325 63.0327L27.9971 62.2318C28.3079 62.1342 28.6289 62.0672 28.9509 62.0327L28.9971 62.8529C28.7051 62.8836 28.4144 62.9439 28.1325 63.0327ZM30.0198 63.031C29.7352 62.9438 29.4431 62.8848 29.1517 62.8566L29.1943 62.031C29.5156 62.0625 29.8378 62.1271 30.1517 62.2236L30.0198 63.031Z" fill="#21307A"/>
<path fill-rule="evenodd" clip-rule="evenodd" d="M49.7078 67.39C49.2872 67.5425 48.8628 67.5957 48.4224 67.5544L48.3607 67.3781C48.3147 67.2461 48.0963 67.2179 48.0646 67.3781C48.0545 67.429 47.9507 67.8773 47.7808 67.6568C47.6811 67.5272 47.7367 67.3245 47.7543 67.1776C47.7737 67.0172 47.7714 66.8139 47.6621 66.6822C47.5366 66.5309 47.1903 66.3768 47.0297 66.5768C46.78 66.8874 47.156 67.3077 46.8601 67.6444C46.6863 67.842 46.3749 67.7156 46.2147 67.5542C46.4266 67.1976 46.3811 66.7947 46.1954 66.4349C46.143 66.3336 45.9709 66.3283 45.9203 66.4349C45.769 66.7526 45.6856 67.1811 45.8182 67.5196C45.6767 67.618 45.4839 67.6395 45.3338 67.5505C45.6063 67.1344 45.711 66.604 45.5635 66.0606C45.5227 65.911 45.338 65.9071 45.2574 66.0206C45.0084 66.3706 44.7756 66.7373 44.803 67.1836C44.8114 67.321 44.8512 67.4471 44.9154 67.5566C44.6731 67.8308 44.3303 68.0165 43.9332 68.0551C43.927 68.0323 43.9214 68.0093 43.9146 67.9866C43.8882 67.8941 43.8578 67.8029 43.8261 67.7121C43.8261 67.4978 43.8296 67.2834 43.8387 67.0698C43.872 67.0169 43.9102 66.964 43.949 66.9077C44.1295 66.6468 44.2838 66.3687 44.4238 66.0843C44.9817 64.951 45.1956 63.6572 45.0609 62.4039C45.0451 62.2581 44.8994 62.1977 44.7851 62.2897C44.446 62.5626 44.2912 62.9565 44.1627 63.3602C43.994 63.8896 43.8654 64.4315 43.7608 64.9767C43.6362 65.6257 43.5609 66.2836 43.5286 66.9437C43.5156 66.962 43.503 66.9808 43.4898 66.9991C43.3077 67.2548 43.4122 67.5344 43.5105 67.8012C43.5119 67.9399 43.5146 68.0786 43.5195 68.217C43.5224 68.3068 43.5887 68.3688 43.6765 68.3743H43.6835C43.7549 68.6675 43.8053 68.9662 43.8384 69.2656C43.9337 70.124 43.8478 70.9938 43.6152 71.8235C43.3002 71.6759 43.2574 70.0169 43.2487 69.7934C43.226 69.2112 43.2689 68.6381 43.313 68.0613C43.359 68.0338 43.3909 67.9814 43.3782 67.9125L43.334 67.6716C43.3077 67.5272 43.0688 67.5267 43.0428 67.6716C42.9175 68.3661 42.9069 69.09 42.9269 69.7934C42.9372 70.1614 42.9689 70.5285 43.0112 70.8942C43.0455 71.1908 43.0655 71.5086 43.1823 71.7855C43.3185 72.1086 43.7888 72.3801 43.9267 71.9197C44.1176 71.2838 44.1979 70.6148 44.2014 69.9524C44.2044 69.4192 44.1344 68.8851 44.0124 68.3652C44.4594 68.314 44.8511 68.1055 45.1373 67.8004C45.2002 67.8459 45.2702 67.8835 45.3466 67.9117C45.5494 67.9861 45.803 67.9189 45.9934 67.7871C46.0271 67.8205 46.0634 67.8524 46.1056 67.8808C46.4892 68.1389 47.0983 68.1016 47.2543 67.5908C47.3322 67.3356 47.307 67.0825 47.2607 66.8236C47.311 66.7964 47.3576 66.8075 47.4009 66.8572C47.4942 66.9311 47.4419 67.188 47.4304 67.2906C47.4136 67.439 47.4027 67.6063 47.4775 67.7431C47.5768 67.9238 47.7233 68.0593 47.9391 68.0482C48.0697 68.0412 48.1647 67.9463 48.2325 67.8269C48.2541 67.839 48.2799 67.8467 48.3092 67.8506C48.8154 67.9169 49.3102 67.8628 49.7903 67.6899C49.9777 67.6227 49.8966 67.3215 49.7077 67.39L49.7078 67.39ZM44.0639 65.1777C44.1562 64.7087 44.2812 64.2451 44.4257 63.7867C44.5349 63.4403 44.6432 63.0739 44.8763 62.7812C44.9473 64.0574 44.592 65.283 43.8852 66.3815C43.9261 65.9788 43.985 65.5775 44.0639 65.1777H44.0639ZM46.1064 66.5726C46.0923 66.9317 45.7629 67.2721 45.1805 67.5726C44.9069 67.2607 45.4302 66.8947 46.1064 66.5726Z" fill="#21307A"/>
<path fill-rule="evenodd" clip-rule="evenodd" d="M35.4062 24.1612C35.4062 23.1774 36.2038 22.3799 37.1876 22.3799H52.5277C53.5115 22.3799 54.309 23.1774 54.309 24.1612C54.309 25.145 53.5115 25.9425 52.5277 25.9425H37.1876C36.2038 25.9425 35.4062 25.145 35.4062 24.1612Z" fill="#D2E0F4"/>
<path fill-rule="evenodd" clip-rule="evenodd" d="M35.4062 18.1174C35.4062 17.1336 36.2038 16.3361 37.1876 16.3361H47.5829C48.5667 16.3361 49.3642 17.1336 49.3642 18.1174C49.3642 19.1012 48.5667 19.8987 47.5829 19.8987H37.1876C36.2038 19.8987 35.4062 19.1012 35.4062 18.1174Z" fill="#D2E0F4"/>
<path fill-rule="evenodd" clip-rule="evenodd" d="M27.7692 16.2159L25.9316 17.4865H27.2023L27.7692 16.2159Z" fill="#21307A"/>
<path fill-rule="evenodd" clip-rule="evenodd" d="M31.2409 16.256H27.7115L25.9675 17.4658L23.9757 21.9035H25.9502L23.9492 26.3614L31.2142 20.7139H29.2399L31.2409 16.256Z" fill="#21307A"/>
<path fill-rule="evenodd" clip-rule="evenodd" d="M27.7113 16.256L25.9639 17.4643H27.1721L27.7113 16.256Z" fill="#21307A"/>
<path fill-rule="evenodd" clip-rule="evenodd" d="M29.0948 18.932H27.0918L27.1432 17.932H29.1462L29.0948 18.932Z" fill="white"/>
<path fill-rule="evenodd" clip-rule="evenodd" d="M28.7348 19.7061H26.7256L26.777 18.7061H28.7862L28.7348 19.7061Z" fill="white"/>
<path fill-rule="evenodd" clip-rule="evenodd" d="M28.3849 20.6171H26.3818L26.4332 19.6171H28.4363L28.3849 20.6171Z" fill="white"/>
<path fill-rule="evenodd" clip-rule="evenodd" d="M28.0206 21.5291H26.0176L26.069 20.5291H28.072L28.0206 21.5291Z" fill="white"/>
<path fill-rule="evenodd" clip-rule="evenodd" d="M24.823 34.4207C25.3261 34.4207 25.734 34.0129 25.734 33.5098C25.734 33.0067 25.3261 32.5989 24.823 32.5989C24.3199 32.5989 23.9121 33.0067 23.9121 33.5098C23.9121 34.0129 24.3199 34.4207 24.823 34.4207Z" fill="#D2E0F4"/>
<path fill-rule="evenodd" clip-rule="evenodd" d="M24.823 38.7312C25.3261 38.7312 25.734 38.3233 25.734 37.8202C25.734 37.3171 25.3261 36.9093 24.823 36.9093C24.3199 36.9093 23.9121 37.3171 23.9121 37.8202C23.9121 38.3233 24.3199 38.7312 24.823 38.7312Z" fill="#D2E0F4"/>
<path fill-rule="evenodd" clip-rule="evenodd" d="M24.823 42.642C25.3261 42.642 25.734 42.2342 25.734 41.7311C25.734 41.228 25.3261 40.8202 24.823 40.8202C24.3199 40.8202 23.9121 41.228 23.9121 41.7311C23.9121 42.2342 24.3199 42.642 24.823 42.642Z" fill="#D2E0F4"/>
<path fill-rule="evenodd" clip-rule="evenodd" d="M24.823 49.0876C25.3261 49.0876 25.734 48.6798 25.734 48.1767C25.734 47.6736 25.3261 47.2657 24.823 47.2657C24.3199 47.2657 23.9121 47.6736 23.9121 48.1767C23.9121 48.6798 24.3199 49.0876 24.823 49.0876Z" fill="#D2E0F4"/>
<path fill-rule="evenodd" clip-rule="evenodd" d="M24.823 53.0709C25.3261 53.0709 25.734 52.663 25.734 52.16C25.734 51.6569 25.3261 51.249 24.823 51.249C24.3199 51.249 23.9121 51.6569 23.9121 52.16C23.9121 52.663 24.3199 53.0709 24.823 53.0709Z" fill="#D2E0F4"/>
<path fill-rule="evenodd" clip-rule="evenodd" d="M67.3895 86.5283C73.6295 86.5283 78.6881 81.4697 78.6881 75.2297C78.6881 68.9896 73.6295 63.931 67.3895 63.931C61.1494 63.931 56.0908 68.9896 56.0908 75.2297C56.0908 81.4697 61.1494 86.5283 67.3895 86.5283Z" fill="#4D5995"/>
<path fill-rule="evenodd" clip-rule="evenodd" d="M66.7666 80.3213L66.8145 70.896L68.0506 70.9022L68.0028 80.3276L66.7666 80.3213Z" fill="white"/>
<path fill-rule="evenodd" clip-rule="evenodd" d="M62.6934 76.2059L62.6996 74.9697L72.125 75.0171L72.1188 76.2533L62.6934 76.2059Z" fill="white"/>
</svg>
