<svg xmlns="http://www.w3.org/2000/svg" width="32" height="32" viewBox="0 0 32 32" fill="none">
  <path d="M22.9644 5.00573C22.7749 4.8697 22.5166 4.88277 22.3418 5.03723C22.167 5.19169 22.1222 5.44649 22.2339 5.65128C23.1042 7.24731 23.599 9.07773 23.599 11.0252C23.599 17.2338 18.5659 22.2669 12.3573 22.2669C9.91339 22.2669 7.65294 21.4876 5.809 20.1638C5.6195 20.0278 5.36113 20.0409 5.18633 20.1953C5.01153 20.3498 4.96676 20.6046 5.07844 20.8094C7.15353 24.6147 11.1911 27.1984 15.8329 27.1984C22.5938 27.1984 28.0746 21.7176 28.0746 14.9567C28.0746 10.8561 26.0579 7.22648 22.9644 5.00573Z" fill="#5B3BFF" stroke="#1D00B3" stroke-linejoin="round"/>
  <circle cx="20.6708" cy="21.4781" r="0.28024" transform="rotate(-90 20.6708 21.4781)" fill="#FFF83D"/>
  <circle cx="22.6152" cy="18.4445" r="0.28024" transform="rotate(-90 22.6152 18.4445)" fill="#FFF83D"/>
  <circle cx="14.2068" cy="25.1858" r="0.427155" transform="rotate(-90 14.2068 25.1858)" fill="#FFF83D"/>
  <circle cx="20.6708" cy="22.6684" r="0.28024" transform="rotate(-90 20.6708 22.6684)" fill="#FFF83D"/>
  <circle cx="25.8987" cy="18.1642" r="0.28024" transform="rotate(-90 25.8987 18.1642)" fill="#FFF83D"/>
  <circle cx="26.0596" cy="12.7844" r="0.44116" transform="rotate(-90 26.0596 12.7844)" fill="#FFF83D"/>
  <circle cx="22.1742" cy="20.5416" r="0.44116" transform="rotate(-90 22.1742 20.5416)" fill="#FFF83D"/>
</svg>