<svg width="93" height="99" viewBox="0 0 93 99" fill="none" xmlns="http://www.w3.org/2000/svg">
<path d="M44.1171 54.1338H89.9923C91.5474 54.1466 92.7906 54.9001 92.7704 55.8166V97.3172C92.7906 98.2347 91.5474 98.9872 89.9923 99H44.1171C42.562 98.9872 41.3188 98.2347 41.3401 97.3172V55.8166C41.3188 54.9001 42.562 54.1466 44.1171 54.1338Z" fill="#B4CBEC"/>
<path d="M19.0541 58.6735L14.656 63.0716L11.3235 63.2195C11.2403 63.2241 11.1616 63.2592 11.1027 63.3182C11.0438 63.3771 11.0087 63.4556 11.0041 63.5388L10.8604 66.7671L7.63213 66.9108C7.54893 66.9154 7.47036 66.9505 7.41144 67.0094C7.35253 67.0683 7.31742 67.1469 7.31283 67.2301L7.16912 70.4574L3.94295 70.601C3.85967 70.6054 3.78097 70.6405 3.722 70.6994C3.66304 70.7584 3.628 70.8371 3.62365 70.9204L3.47462 74.253L0.567746 77.1587L0.205889 81.7197C0.185038 81.9834 0.221601 82.2485 0.313147 82.4967C0.404693 82.7449 0.549036 82.9702 0.736136 83.1572C0.923235 83.3442 1.14867 83.4884 1.3969 83.5798C1.64513 83.6712 1.91025 83.7076 2.17395 83.6866L6.73379 83.3248L25.2286 64.8289L25.6661 65.2653C25.7365 65.3358 25.8201 65.3918 25.9122 65.43C26.0042 65.4682 26.1029 65.4878 26.2026 65.4878C26.3022 65.4878 26.4009 65.4682 26.4929 65.43C26.585 65.3918 26.6686 65.3358 26.739 65.2653L27.7693 64.236C30.6146 65.2411 33.7171 65.2492 36.5675 64.2589C39.418 63.2685 41.8471 61.3387 43.4563 58.7859C45.0655 56.2332 45.7591 53.2093 45.4233 50.2104C45.0875 47.2116 43.7423 44.4159 41.6084 42.2823C39.4745 40.1487 36.6787 38.8038 33.6798 38.4684C30.6809 38.1331 27.657 38.8271 25.1045 40.4366C22.552 42.0461 20.6225 44.4755 19.6325 47.3261C18.6426 50.1767 18.651 53.2792 19.6565 56.1243L18.6273 57.1535C18.5567 57.224 18.5007 57.3077 18.4625 57.3999C18.4243 57.492 18.4047 57.5908 18.4047 57.6905C18.4047 57.7903 18.4243 57.8891 18.4625 57.9812C18.5007 58.0733 18.5567 58.157 18.6273 58.2275L19.0541 58.6735ZM35.9524 43.8785C36.3544 43.4768 36.8664 43.2034 37.4238 43.0927C37.9812 42.982 38.559 43.039 39.0839 43.2566C39.6089 43.4742 40.0576 43.8425 40.3733 44.315C40.689 44.7876 40.8575 45.3431 40.8575 45.9114C40.8575 46.4797 40.689 47.0353 40.3733 47.5078C40.0576 47.9804 39.6089 48.3487 39.0839 48.5663C38.559 48.7839 37.9812 48.841 37.4238 48.7303C36.8664 48.6196 36.3544 48.3461 35.9524 47.9445C35.6846 47.6775 35.4722 47.3603 35.3272 47.011C35.1822 46.6618 35.1076 46.2874 35.1076 45.9093C35.1076 45.5312 35.1822 45.1568 35.3272 44.8076C35.4722 44.4584 35.6846 44.1412 35.9524 43.8742V43.8785Z" fill="#D2E0F4"/>
<path d="M0.376953 82.6809C0.426802 82.7787 0.483346 82.8729 0.546188 82.9629C0.732806 83.2109 0.978755 83.4081 1.26145 83.5362C1.54415 83.6643 1.85449 83.7194 2.16402 83.6963L5.99586 83.3918L24.8845 64.5042L21.719 61.3387L0.376953 82.6809Z" fill="#B4CBEC"/>
<path d="M42.9558 68.5585C43.1572 68.5582 43.3502 68.478 43.4925 68.3355C43.6348 68.193 43.7147 67.9998 43.7147 67.7985V66.3424C46.4375 65.0414 48.6372 62.8536 49.9527 60.1378C51.2683 57.4221 51.6215 54.3397 50.9546 51.3968C50.2876 48.4538 48.64 45.8249 46.2821 43.9417C43.9243 42.0584 40.9963 41.0326 37.9787 41.0326C34.9611 41.0326 32.0332 42.0584 29.6753 43.9417C27.3175 45.8249 25.6699 48.4538 25.0029 51.3968C24.3359 54.3397 24.6892 57.4221 26.0047 60.1378C27.3203 62.8536 29.52 65.0414 32.2428 66.3424V67.7985C32.2428 67.9998 32.3226 68.193 32.4649 68.3355C32.6072 68.478 32.8003 68.5582 33.0017 68.5585H33.619V94.7148L36.5876 98.1954C36.7591 98.3968 36.9724 98.5584 37.2126 98.6694C37.4528 98.7803 37.7142 98.8377 37.9787 98.8377C38.2433 98.8377 38.5047 98.7803 38.7449 98.6694C38.9851 98.5584 39.1983 98.3968 39.3699 98.1954L42.3385 94.7148V90.6041L44.5897 88.1432C44.6467 88.0809 44.6783 87.9994 44.6783 87.915C44.6783 87.8305 44.6467 87.749 44.5897 87.6866L42.4098 85.3035L44.5897 82.9203C44.6466 82.8581 44.6781 82.7768 44.6781 82.6925C44.6781 82.6082 44.6466 82.527 44.5897 82.4648L42.4077 80.0794L44.5897 77.6952C44.6467 77.6328 44.6783 77.5513 44.6783 77.4669C44.6783 77.3824 44.6467 77.3009 44.5897 77.2386L42.3385 74.7777V68.5585H42.9558ZM37.9787 49.0195C37.4103 49.0195 36.8547 48.8509 36.3821 48.5351C35.9095 48.2193 35.5412 47.7705 35.3237 47.2453C35.1062 46.7202 35.0492 46.1424 35.1601 45.585C35.271 45.0275 35.5447 44.5154 35.9466 44.1135C36.3485 43.7116 36.8606 43.4379 37.4181 43.327C37.9756 43.2161 38.5534 43.273 39.0785 43.4905C39.6037 43.708 40.0525 44.0764 40.3683 44.549C40.6841 45.0216 40.8526 45.5772 40.8526 46.1456C40.853 46.5233 40.779 46.8973 40.6348 47.2463C40.4905 47.5954 40.2789 47.9126 40.012 48.1798C39.7451 48.447 39.4281 48.659 39.0792 48.8036C38.7304 48.9482 38.3564 49.0227 37.9787 49.0227V49.0195Z" fill="#4D5995"/>
<path d="M38.5715 98.7435C38.467 98.7775 38.3604 98.8042 38.2522 98.8233C37.9451 98.8662 37.6321 98.8316 37.3419 98.7224C37.0517 98.6133 36.7934 98.4332 36.5906 98.1985L34.0957 95.2736V68.5585H38.5715V98.7435Z" fill="#7A83AF"/>
<path d="M49.3226 8.38918e-06C44.8244 -0.00371119 40.4118 1.22952 36.5673 3.56485C32.7228 5.90017 29.5944 9.24763 27.5243 13.2412C25.4542 17.2348 24.5222 21.7207 24.83 26.2084C25.1378 30.6961 26.6736 35.0128 29.2696 38.6864C29.3462 38.6672 29.4292 38.6555 29.508 38.6395C29.8125 38.5569 30.1252 38.5079 30.4404 38.4937C26.8448 33.7 25.1827 27.7297 25.784 21.7677C26.3852 15.8056 29.2058 10.2874 33.6862 6.30813C38.1665 2.32885 43.979 0.179231 49.9704 0.28592C55.9618 0.39261 61.6941 2.74777 66.0299 6.88405C70.3657 11.0203 72.9881 16.6354 73.3767 22.6151C73.7653 28.5948 71.8917 34.5021 68.1277 39.1648C64.3638 43.8274 58.9845 46.9047 53.0573 47.786C47.1301 48.6672 41.0883 47.288 36.1306 43.9221C36.1097 43.9385 36.0876 43.9535 36.0646 43.9668C35.9707 44.0712 35.867 44.1664 35.7549 44.2509C35.7304 44.2861 35.7017 44.318 35.6751 44.3521C35.6146 44.458 35.5455 44.5587 35.4685 44.6533C35.4536 44.681 35.4398 44.7097 35.4228 44.7374C38.5903 46.9184 42.2261 48.3242 46.037 48.8413C49.8478 49.3584 53.7268 48.9724 57.3609 47.7143C60.9951 46.4562 64.2825 44.3614 66.958 41.5989C69.6334 38.8363 71.6219 35.4835 72.763 31.811C73.9041 28.1384 74.1657 24.249 73.5268 20.4567C72.8879 16.6643 71.3665 13.0754 69.0851 9.97938C66.8038 6.88338 63.8265 4.36706 60.3936 2.63357C56.9607 0.900074 53.1684 -0.00202487 49.3226 8.38918e-06Z" fill="#21307A"/>
<path d="M50.5814 38.6757C58.512 38.6757 64.9411 32.2466 64.9411 24.316C64.9411 16.3854 58.512 9.9563 50.5814 9.9563C42.6507 9.9563 36.2217 16.3854 36.2217 24.316C36.2217 32.2466 42.6507 38.6757 50.5814 38.6757Z" fill="#D2E0F4"/>
<path d="M50.5814 38.6757C58.512 38.6757 64.9411 32.2466 64.9411 24.316C64.9411 16.3854 58.512 9.9563 50.5814 9.9563C42.6507 9.9563 36.2217 16.3854 36.2217 24.316C36.2217 32.2466 42.6507 38.6757 50.5814 38.6757Z" fill="#D2E0F4"/>
<mask id="mask0_1489_30293" style="mask-type:luminance" maskUnits="userSpaceOnUse" x="36" y="9" width="29" height="30">
<path d="M50.5814 38.6757C58.512 38.6757 64.9411 32.2466 64.9411 24.316C64.9411 16.3854 58.512 9.9563 50.5814 9.9563C42.6507 9.9563 36.2217 16.3854 36.2217 24.316C36.2217 32.2466 42.6507 38.6757 50.5814 38.6757Z" fill="white"/>
</mask>
<g mask="url(#mask0_1489_30293)">
<path d="M46.2837 33.3549C46.5539 33.1531 46.8385 32.9713 47.1352 32.811C47.143 32.8055 47.1516 32.8011 47.1607 32.7982C47.8731 32.4053 48.467 31.8285 48.8806 31.128C49.2941 30.4274 49.5122 29.6287 49.512 28.8152L51.6408 28.8057C51.6408 29.6217 51.8603 30.4226 52.2764 31.1245C52.6926 31.8264 53.2899 32.4034 54.0058 32.795H54.0111C54.3066 32.9573 54.5911 33.139 54.8626 33.3389C55.7624 34.0065 56.4932 34.8758 56.9964 35.8769C57.4995 36.8781 57.761 37.9832 57.7599 39.1036H43.3906C43.3909 37.9861 43.6528 36.8842 44.1551 35.886C44.6575 34.8878 45.3864 34.021 46.2837 33.3549Z" fill="white"/>
<path d="M43.3994 39.1111H57.7687C57.7702 37.9904 57.5089 36.8849 57.0057 35.8836C56.5026 34.8822 55.7715 34.0129 54.8714 33.3453C54.6004 33.1449 54.3159 32.9635 54.0199 32.8024C53.7885 32.6755 53.5687 32.5284 53.3632 32.3628C52.6452 33.098 51.6647 33.518 50.6371 33.5304C49.6096 33.5428 48.6192 33.1465 47.8837 32.4288L47.8198 32.3649C47.6175 32.5302 47.4005 32.6766 47.1716 32.8024C47.1628 32.8048 47.1546 32.8087 47.1472 32.8141C46.8505 32.9744 46.5658 33.1562 46.2956 33.358C45.3972 34.0242 44.6673 34.8916 44.1644 35.8906C43.6614 36.8896 43.3994 37.9926 43.3994 39.1111Z" fill="#4D5995"/>
<path d="M56.0954 18.0957V23.737C56.0954 27.5539 52.7447 30.6481 50.5819 30.6481C48.4191 30.6481 45.0684 27.5539 45.0684 23.737V18.0957H56.0954Z" fill="white"/>
<path d="M45.9664 17.0558C46.5706 16.2896 47.34 15.6698 48.2174 15.2428C49.0947 14.8157 50.0571 14.5924 51.0329 14.5896C52.7989 14.6157 54.4823 15.3422 55.7126 16.6093C56.943 17.8764 57.6197 19.5804 57.5938 21.3464C57.5979 22.2816 57.4097 23.2077 57.0409 24.0672C56.6722 24.9267 56.1307 25.7011 55.4501 26.3426C55.8037 25.4458 55.9842 24.4902 55.9823 23.5262C55.9982 22.0079 55.5398 20.5225 54.671 19.2772C53.4398 19.6583 52.1402 19.7659 50.8631 19.5921C49.586 19.4184 48.3624 18.9676 47.2778 18.2714C46.561 18.9427 45.9935 19.7573 45.6121 20.6623C45.2307 21.5672 45.0439 22.5423 45.0638 23.5241C45.0582 24.5773 45.2739 25.6199 45.6971 26.5843C44.4017 26.0521 43.4502 24.1362 43.4502 21.8637C43.447 19.4316 44.5391 17.4241 45.9664 17.0558Z" fill="#21307A"/>
</g>
<path d="M67.8793 48.7415C72.1106 48.7415 75.5407 45.3114 75.5407 41.0801C75.5407 36.8487 72.1106 33.4186 67.8793 33.4186C63.6479 33.4186 60.2178 36.8487 60.2178 41.0801C60.2178 45.3114 63.6479 48.7415 67.8793 48.7415Z" fill="#C3D5F0"/>
<mask id="mask1_1489_30293" style="mask-type:luminance" maskUnits="userSpaceOnUse" x="60" y="33" width="16" height="16">
<path d="M67.8793 48.7415C72.1106 48.7415 75.5407 45.3114 75.5407 41.0801C75.5407 36.8487 72.1106 33.4186 67.8793 33.4186C63.6479 33.4186 60.2178 36.8487 60.2178 41.0801C60.2178 45.3114 63.6479 48.7415 67.8793 48.7415Z" fill="white"/>
</mask>
<g mask="url(#mask1_1489_30293)">
<path d="M70.1734 45.9049C70.03 45.7964 69.8787 45.6986 69.721 45.6122L69.7083 45.6058C69.3273 45.3961 69.0098 45.0879 68.7888 44.7134C68.5679 44.3389 68.4516 43.9118 68.4523 43.477L67.3198 43.4717C67.3195 43.9075 67.2018 44.3351 66.9791 44.7097C66.7565 45.0843 66.4369 45.392 66.0542 45.6005C65.4467 45.9296 64.9396 46.4168 64.5864 47.0106C64.2332 47.6044 64.0471 48.2826 64.0479 48.9735H71.7114C71.7122 48.3775 71.5735 47.7896 71.3065 47.2567C71.0394 46.7239 70.6514 46.2609 70.1734 45.9049Z" fill="white"/>
<path d="M71.7125 48.9735H64.0488C64.0478 48.3755 64.1871 47.7855 64.4555 47.2511C64.7239 46.7167 65.114 46.2527 65.5944 45.8964C65.7403 45.7882 65.8935 45.6904 66.0531 45.6036C66.1764 45.5359 66.2935 45.4576 66.4032 45.3695C66.7862 45.7617 67.3093 45.9857 67.8574 45.9923C68.4055 45.9989 68.9338 45.7875 69.3261 45.4046L69.3612 45.3695C69.469 45.4578 69.5848 45.5359 69.7071 45.6026L69.7199 45.609C69.8776 45.6954 70.0288 45.7932 70.1723 45.9017C70.6511 46.2579 71.0398 46.7212 71.3073 47.2547C71.5747 47.7881 71.7135 48.3768 71.7125 48.9735Z" fill="#4D5995"/>
<path d="M64.9395 37.7623V40.7724C64.9395 42.8075 66.7266 44.4595 67.8804 44.4595C69.0342 44.4595 70.8224 42.8086 70.8224 40.7724V37.7623H64.9395Z" fill="white"/>
<path d="M70.3425 37.2109C70.0202 36.8019 69.6096 36.4711 69.1414 36.2431C68.6733 36.0151 68.1596 35.8958 67.6389 35.8943C66.6964 35.9083 65.7982 36.2961 65.1417 36.9724C64.4852 37.6487 64.1241 38.558 64.1381 39.5004C64.136 39.9985 64.2362 40.4916 64.4324 40.9494C64.6287 41.4071 64.9169 41.8196 65.2791 42.1614C65.0907 41.6832 64.995 41.1736 64.9971 40.6596C64.9886 39.8496 65.2331 39.057 65.6963 38.3925C66.3529 38.5964 67.0462 38.6545 67.7275 38.5625C68.4089 38.4706 69.062 38.2309 69.641 37.8603C70.0237 38.2185 70.3266 38.6532 70.5302 39.1362C70.7338 39.6193 70.8334 40.1398 70.8225 40.6638C70.8257 41.2247 70.7107 41.78 70.4851 42.2934C70.8969 42.024 71.2266 41.6464 71.438 41.2019C71.6494 40.7575 71.7343 40.2635 71.6835 39.774C71.6846 38.4744 71.1035 37.4036 70.3425 37.2109Z" fill="#21307A"/>
</g>
<path d="M74.8251 31.5464C78.6614 31.5464 81.7713 28.4364 81.7713 24.6001C81.7713 20.7639 78.6614 17.6539 74.8251 17.6539C70.9888 17.6539 67.8789 20.7639 67.8789 24.6001C67.8789 28.4364 70.9888 31.5464 74.8251 31.5464Z" fill="#C3D5F0"/>
<mask id="mask2_1489_30293" style="mask-type:luminance" maskUnits="userSpaceOnUse" x="67" y="17" width="15" height="15">
<path d="M74.8251 31.5464C78.6614 31.5464 81.7713 28.4364 81.7713 24.6001C81.7713 20.7639 78.6614 17.6539 74.8251 17.6539C70.9888 17.6539 67.8789 20.7639 67.8789 24.6001C67.8789 28.4364 70.9888 31.5464 74.8251 31.5464Z" fill="white"/>
</mask>
<g mask="url(#mask2_1489_30293)">
<path d="M72.7464 28.9726C72.876 28.8743 73.0126 28.7858 73.1552 28.7076L73.1679 28.7012C73.5126 28.5113 73.7999 28.2323 73.9999 27.8934C74.1998 27.5545 74.3051 27.1681 74.3047 26.7746L75.3318 26.7693C75.3314 27.1648 75.4377 27.5531 75.6397 27.8931C75.8417 28.2332 76.1318 28.5123 76.4793 28.7012C76.6236 28.7797 76.7624 28.8683 76.8944 28.9662C77.3295 29.2891 77.6828 29.7094 77.926 30.1935C78.1693 30.6777 78.2957 31.2121 78.2951 31.7539H71.3457C71.3459 31.2131 71.4726 30.6799 71.7159 30.1969C71.9591 29.714 72.312 29.2946 72.7464 28.9726Z" fill="white"/>
<path d="M71.3477 31.757H78.2971C78.298 31.215 78.1717 30.6804 77.9284 30.196C77.6852 29.7117 77.3316 29.2912 76.8963 28.9683C76.7643 28.8704 76.6256 28.7818 76.4812 28.7032C76.3683 28.6425 76.2614 28.5712 76.1618 28.4904C75.814 28.8452 75.3397 29.0476 74.8429 29.0532C74.346 29.0588 73.8672 28.8671 73.5115 28.5202L73.4817 28.4904C73.3837 28.5707 73.2787 28.642 73.1677 28.7032L73.156 28.7096C73.0131 28.7878 72.8761 28.8764 72.7462 28.9747C72.3123 29.2973 71.9599 29.7169 71.717 30.2C71.4742 30.6831 71.3477 31.2163 71.3477 31.757Z" fill="#4D5995"/>
<path d="M77.4921 21.5911V24.3212C77.4921 26.1679 75.8711 27.6645 74.8237 27.6645C73.7764 27.6645 72.1553 26.1679 72.1553 24.3212V21.5911H77.4921Z" fill="white"/>
<path d="M72.5932 21.0865C72.8852 20.7164 73.257 20.4171 73.6809 20.2108C74.1048 20.0046 74.5699 19.8968 75.0413 19.8955C75.4642 19.9016 75.8818 19.9909 76.2702 20.1585C76.6586 20.326 77.0102 20.5685 77.3048 20.8719C77.5995 21.1754 77.8314 21.5339 77.9875 21.927C78.1435 22.3202 78.2206 22.7402 78.2143 23.1631C78.2166 23.6158 78.1257 24.0641 77.9474 24.4801C77.769 24.8961 77.507 25.271 77.1775 25.5815C77.3482 25.1472 77.4349 24.6845 77.433 24.218C77.4392 23.4834 77.2159 22.7653 76.7943 22.1637C76.1988 22.3482 75.5702 22.4003 74.9525 22.3165C74.3347 22.2327 73.7427 22.0149 73.218 21.6783C72.8713 22.0028 72.5968 22.3967 72.4123 22.8342C72.2278 23.2718 72.1375 23.7432 72.1472 24.218C72.1446 24.7271 72.2486 25.2311 72.4527 25.6975C72.0801 25.4527 71.7818 25.1104 71.5901 24.7079C71.3985 24.3053 71.321 23.8579 71.366 23.4143C71.3734 22.2371 71.9024 21.2643 72.5932 21.0865Z" fill="#21307A"/>
</g>
<path d="M58.3584 64.8054H75.7548C76.1979 64.753 76.644 64.8744 76.9993 65.1442C77.3546 65.414 77.5915 65.811 77.6601 66.2519V66.3924C77.5915 66.8332 77.3546 67.2303 76.9993 67.5001C76.644 67.7699 76.1979 67.8913 75.7548 67.8389H58.3584C57.9154 67.891 57.4694 67.7695 57.1141 67.4998C56.7589 67.23 56.5219 66.8331 56.4531 66.3924V66.2519C56.5219 65.8111 56.7589 65.4142 57.1141 65.1445C57.4694 64.8748 57.9154 64.7533 58.3584 64.8054Z" fill="#4D5995"/>
<path d="M61.2265 59.659H72.889C73.3535 59.6047 73.8209 59.7322 74.1934 60.015C74.5658 60.2978 74.8143 60.7138 74.8868 61.1757C74.8143 61.6377 74.5658 62.0537 74.1934 62.3365C73.8209 62.6192 73.3535 62.7468 72.889 62.6925H61.2265C60.762 62.7471 60.2944 62.6198 59.9217 62.3372C59.549 62.0547 59.3003 61.6388 59.2275 61.1768C59.3 60.7146 59.5487 60.2984 59.9214 60.0157C60.2941 59.7329 60.7618 59.6044 61.2265 59.659Z" fill="#4D5995"/>
<path d="M55.6957 93.6121C61.1691 93.6121 65.6062 89.175 65.6062 83.7016C65.6062 78.2281 61.1691 73.791 55.6957 73.791C50.2223 73.791 45.7852 78.2281 45.7852 83.7016C45.7852 89.175 50.2223 93.6121 55.6957 93.6121Z" fill="#F0F5FB"/>
<path d="M62.4408 83.5313C62.3045 83.394 59.3934 79.9698 55.6946 79.9698C51.9959 79.9698 49.0859 83.394 48.9486 83.5313C48.9153 83.5822 48.8975 83.6418 48.8975 83.7027C48.8975 83.7636 48.9153 83.8231 48.9486 83.8741C49.0859 84.0103 51.997 87.4355 55.6946 87.4355C59.3923 87.4355 62.3045 84.0103 62.4408 83.8741C62.4746 83.8233 62.4927 83.7637 62.4927 83.7027C62.4927 83.6417 62.4746 83.582 62.4408 83.5313ZM55.6946 86.9214C52.6814 86.9214 50.147 84.3871 49.4967 83.7027C50.113 83.0172 52.6814 80.484 55.6946 80.484C58.7079 80.484 61.2423 83.0172 61.8937 83.7027C61.2433 84.3871 58.709 86.9214 55.6946 86.9214Z" fill="#21307A"/>
<path d="M55.6944 81.1344C55.1864 81.1344 54.6898 81.285 54.2675 81.5672C53.8451 81.8494 53.5159 82.2506 53.3215 82.7199C53.1271 83.1892 53.0762 83.7056 53.1753 84.2038C53.2744 84.702 53.5191 85.1596 53.8782 85.5188C54.2374 85.878 54.6951 86.1227 55.1933 86.2218C55.6916 86.3209 56.208 86.27 56.6773 86.0756C57.1466 85.8812 57.5477 85.552 57.8299 85.1296C58.1121 84.7073 58.2628 84.2107 58.2628 83.7027C58.2577 83.0231 57.9855 82.3727 57.5049 81.8922C57.0244 81.4116 56.374 81.1394 55.6944 81.1344ZM55.6944 85.757C55.2881 85.7568 54.8911 85.6361 54.5534 85.4103C54.2157 85.1844 53.9526 84.8636 53.7972 84.4882C53.6419 84.1128 53.6014 83.6997 53.6808 83.3013C53.7601 82.9029 53.9559 82.537 54.2432 82.2498C54.5306 81.9626 54.8966 81.767 55.2951 81.6878C55.6935 81.6087 56.1065 81.6495 56.4818 81.805C56.8571 81.9605 57.1779 82.2238 57.4036 82.5616C57.6293 82.8994 57.7497 83.2965 57.7497 83.7027C57.748 84.2472 57.5309 84.7689 57.1458 85.1539C56.7607 85.5388 56.2388 85.7556 55.6944 85.757Z" fill="#21307A"/>
<path d="M55.6948 84.1806C55.9593 84.1806 56.1738 83.9662 56.1738 83.7016C56.1738 83.4371 55.9593 83.2227 55.6948 83.2227C55.4303 83.2227 55.2158 83.4371 55.2158 83.7016C55.2158 83.9662 55.4303 84.1806 55.6948 84.1806Z" fill="#21307A"/>
<path d="M78.9193 93.6121C84.3928 93.6121 88.8299 89.175 88.8299 83.7016C88.8299 78.2281 84.3928 73.791 78.9193 73.791C73.4459 73.791 69.0088 78.2281 69.0088 83.7016C69.0088 89.175 73.4459 93.6121 78.9193 93.6121Z" fill="#F0F5FB"/>
<path d="M85.5446 80.9459L83.1477 78.5489C83.1007 78.506 83.0398 78.4818 82.9763 78.4807C82.9129 78.4823 82.8521 78.5065 82.8049 78.5489L75.9566 85.3971C75.9225 85.4322 75.9226 85.4322 75.9226 85.4663V85.5004L75.5117 88.2742C75.5117 88.3423 75.5117 88.4456 75.5798 88.4796C75.6268 88.5223 75.6877 88.5465 75.7512 88.5477H75.7852L78.559 88.1369H78.5931C78.6192 88.1332 78.6434 88.1213 78.6623 88.1028L84.4153 82.3498L85.4797 81.2854C85.6479 81.1853 85.6479 81.0491 85.5446 80.9459ZM81.9151 80.1582L83.9374 82.1805L78.5271 87.5919L77.534 86.5988L76.541 85.6058L81.9151 80.1582ZM76.0247 88.0687L76.2994 86.1528L77.121 86.9746L77.9428 87.7973L76.0247 88.0687ZM84.278 81.8368L82.2557 79.8144L82.9741 79.0959L84.9965 81.1183L84.278 81.8368Z" fill="#21307A"/>
<path d="M74.1757 88.3764H72.4971C72.461 88.3759 72.4252 88.3828 72.3917 88.3964C72.3583 88.4101 72.3279 88.4303 72.3024 88.4559C72.2769 88.4815 72.2568 88.512 72.2433 88.5455C72.2297 88.579 72.2231 88.6148 72.2236 88.651C72.2204 88.6877 72.2252 88.7247 72.2378 88.7594C72.2504 88.7941 72.2705 88.8256 72.2965 88.8516C72.3226 88.8777 72.3541 88.8978 72.3887 88.9104C72.4234 88.923 72.4604 88.9278 72.4971 88.9245H74.1757C74.2118 88.9251 74.2476 88.9185 74.2811 88.9049C74.3145 88.8914 74.3449 88.8712 74.3704 88.8457C74.3959 88.8202 74.4161 88.7898 74.4296 88.7563C74.4431 88.7229 74.4498 88.6871 74.4492 88.651C74.4526 88.6141 74.448 88.577 74.4354 88.5422C74.4229 88.5074 74.4029 88.4758 74.3768 88.4496C74.3507 88.4234 74.3192 88.4032 74.2844 88.3906C74.2497 88.3779 74.2126 88.3731 74.1757 88.3764Z" fill="#21307A"/>
</svg>
