<svg width="390" height="534" viewBox="0 0 390 534" fill="none" xmlns="http://www.w3.org/2000/svg">
<path d="M381.661 234.8H292.101L384.291 11.63C386.641 5.5 382.571 0.03 377.021 0L194.771 0.039978C192.641 0.039978 190.571 0.609995 189.011 1.87C189.011 1.87 122.661 57.75 102.031 75.37C99.4908 77.54 98.2508 79.5 96.9908 82.66C86.4008 109.15 0.700778 315.85 0.700778 315.85C-2.03922 323.28 3.84082 327.13 8.24082 327.14H124.421C124.421 327.14 58.1508 490.13 58.1308 490.22L45.1508 521.97C42.0108 529.66 51.2108 536.45 57.6308 531.18C57.6308 531.18 377.191 257.3 386.811 249.27C392.021 244.92 390.521 234.8 381.651 234.8H381.661ZM240.821 203.39L228.991 232.01C228.301 233.7 226.651 234.8 224.831 234.8L101.481 234.69C99.7108 234.69 98.5008 232.9 99.1608 231.25L110.941 202.75C111.631 201.05 113.281 199.94 115.111 199.94H238.511C240.291 199.94 241.501 201.74 240.821 203.39ZM275.721 119.12L263.911 147.72C263.221 149.41 261.571 150.51 259.751 150.51L136.371 150.46C134.601 150.46 133.391 148.67 134.051 147.02L145.811 118.48C146.501 116.78 148.151 115.67 149.981 115.67H273.401C275.181 115.67 276.391 117.47 275.711 119.12H275.721Z" fill="#3259E4"/>
</svg>
