<svg width="92" height="89" viewBox="0 0 92 89" fill="none" xmlns="http://www.w3.org/2000/svg">
<path d="M0 22.55H85.81V78.3501C85.81 82.5301 82.41 85.9301 78.23 85.9301H7.58C3.4 85.9301 0 82.5301 0 78.3501V22.55Z" fill="#D2E0F4"/>
<path d="M6.90001 0H78.92C82.72 0 85.81 3.09 85.81 6.89V22.54H0V6.89C0 3.09 3.09 0 6.89 0H6.90001Z" fill="#4D5995"/>
<path d="M8.31973 14.12C9.89374 14.12 11.1697 12.8441 11.1697 11.2701C11.1697 9.69604 9.89374 8.42004 8.31973 8.42004C6.74572 8.42004 5.46973 9.69604 5.46973 11.2701C5.46973 12.8441 6.74572 14.12 8.31973 14.12Z" fill="#D2E0F4"/>
<path d="M17.7602 14.12C19.3342 14.12 20.6102 12.8441 20.6102 11.2701C20.6102 9.69604 19.3342 8.42004 17.7602 8.42004C16.1862 8.42004 14.9102 9.69604 14.9102 11.2701C14.9102 12.8441 16.1862 14.12 17.7602 14.12Z" fill="#E1EAF7"/>
<path d="M27.1898 14.12C28.7639 14.12 30.0398 12.8441 30.0398 11.2701C30.0398 9.69604 28.7639 8.42004 27.1898 8.42004C25.6158 8.42004 24.3398 9.69604 24.3398 11.2701C24.3398 12.8441 25.6158 14.12 27.1898 14.12Z" fill="#F0F5FB"/>
<path d="M56.6697 66.34C56.5097 66.34 56.3497 66.31 56.1897 66.24C55.5797 65.98 55.2997 65.27 55.5697 64.66L62.7997 47.96C63.0597 47.35 63.7697 47.07 64.3797 47.34C64.9897 47.6 65.2697 48.31 64.9997 48.92L57.7697 65.62C57.5697 66.07 57.1297 66.34 56.6697 66.34Z" fill="#4D5995"/>
<path d="M49 56.8199C50.49 58.0099 51.9 59.1399 53.3 60.2699C53.49 60.4199 53.68 60.5599 53.85 60.7299C54.33 61.2099 54.39 61.9199 53.97 62.3799C53.51 62.8799 52.92 62.9899 52.39 62.5799C50.33 60.9799 48.3 59.3599 46.29 57.7099C45.68 57.2099 45.7 56.4199 46.33 55.9099C48.3 54.2899 50.3 52.6999 52.3 51.1299C52.87 50.6799 53.61 50.7899 54.01 51.3199C54.41 51.8399 54.33 52.5499 53.76 53.0199C52.22 54.2799 50.66 55.5199 49.01 56.8399L49 56.8199Z" fill="#4D5995"/>
<path d="M71.5097 56.82C69.9297 55.55 68.4597 54.38 66.9897 53.2C66.2197 52.58 66.0497 51.88 66.5197 51.29C66.9797 50.71 67.7097 50.71 68.4797 51.32C70.3097 52.78 72.1397 54.23 73.9597 55.7C74.8897 56.45 74.8997 57.18 73.9797 57.93C72.1397 59.42 70.2897 60.89 68.4397 62.36C67.7097 62.94 66.9897 62.93 66.5397 62.36C66.0597 61.78 66.2297 61.06 66.9897 60.45C68.4797 59.26 69.9697 58.07 71.5297 56.81L71.5097 56.82Z" fill="#4D5995"/>
<path fill-rule="evenodd" clip-rule="evenodd" d="M86.8188 76.1278L92.0004 64.3882L86.2806 61.8633C86.722 59.3353 86.7749 56.7918 86.478 54.3076L91.9438 52.1892L87.3041 40.2251L81.8754 42.3304C80.4269 40.2717 78.6683 38.41 76.6345 36.8207C77.8549 34.0609 79.1282 31.1729 79.1282 31.1729L67.3891 25.9918L64.8954 31.6396C62.3515 31.2073 59.789 31.167 57.2922 31.4798L55.1896 26.0511L43.225 30.6881L45.3434 36.1544C43.3065 37.606 41.4669 39.3614 39.893 41.3916L34.1733 38.8635L28.9922 50.6063L34.7554 53.147C34.339 55.6592 34.3046 58.1842 34.6146 60.6466L29.0515 62.8021L33.6885 74.7667L39.2892 72.5953C40.7219 74.6069 42.446 76.4252 44.4422 77.9832L41.8639 83.8184L53.6035 88.9999C53.6035 88.9999 54.9361 85.9803 56.1818 83.1648C58.6755 83.5903 61.1846 83.6373 63.6312 83.3431L65.8025 88.9434L77.7671 84.3068L75.6115 78.7405C77.639 77.3106 79.4817 75.5832 81.0556 73.5843L86.8188 76.1278ZM53.3907 73.5935C44.4486 69.6481 40.3996 59.1981 44.3485 50.2555C48.2938 41.3133 58.7411 37.2648 67.6865 41.2133C76.625 45.1586 80.674 55.6059 76.7287 64.5481C72.7834 73.4903 62.3325 77.5388 53.3907 73.5935Z" fill="#7A83AF"/>
</svg>
