<svg width="94" height="101" viewBox="0 0 94 101" fill="none" xmlns="http://www.w3.org/2000/svg">
<path d="M87.5636 7.83231C87.5957 5.90788 86.8986 4.04327 85.6136 2.61691C84.3286 1.19055 82.552 0.309283 80.6445 0.15201C80.4955 0.143258 80.3453 0.136719 80.1941 0.136719C78.2022 0.174954 76.3068 1.00705 74.9247 2.4501C73.5425 3.89316 72.7868 5.82908 72.8235 7.83231V19.2499H87.5636V7.83231Z" fill="#4D5995"/>
<path d="M78.3713 7.81909H5.48438V101H78.3713V7.81909Z" fill="#21307A"/>
<path d="M80.1693 0.136719H7.50658C5.48379 0.208341 3.57181 1.08385 2.19006 2.57123C0.808313 4.05862 0.0695903 6.03645 0.13595 8.07083V95.1577H72.8238V39.1037H72.7987V8.07083C72.7324 6.03645 73.4711 4.05862 74.8529 2.57123C76.2346 1.08385 78.1465 0.208341 80.1693 0.136719Z" fill="#F0F5FB"/>
<path d="M72.9597 95.2945H-0.000137929V8.06973C-0.0641565 5.99983 0.689675 3.98872 2.09647 2.47638C3.50327 0.964047 5.44851 0.073642 7.50648 0H80.1692V0.273514C78.1833 0.347115 76.3071 1.20862 74.9512 2.66963C73.5952 4.13065 72.8697 6.07225 72.9335 8.06973V38.967L72.9597 39.1038V95.2945ZM0.27184 95.021H72.6877V39.2405L72.6615 39.1038V8.06973C72.628 6.33999 73.1522 4.64586 74.1556 3.24057C75.159 1.83527 76.5878 0.794356 78.2284 0.273514H7.50648C5.52073 0.347397 3.64484 1.20905 2.2891 2.67003C0.933359 4.13102 0.20807 6.07243 0.27184 8.06973V95.021Z" fill="#F3F1EE"/>
<path d="M13.5542 36.6216H62.531C62.7878 36.6216 62.9944 37.15 62.9944 37.802C62.9944 38.453 62.7878 38.9814 62.531 38.9814H13.5542C13.2975 38.9814 13.0908 38.453 13.0908 37.802C13.0908 37.15 13.2975 36.6216 13.5542 36.6216Z" fill="#C3D5F0"/>
<path d="M13.5542 30.1665H62.531C62.7878 30.1665 62.9944 30.6938 62.9944 31.3459C62.9944 31.9969 62.7878 32.5253 62.531 32.5253H13.5542C13.2975 32.5253 13.0908 31.9969 13.0908 31.3459C13.0908 30.6938 13.2975 30.1665 13.5542 30.1665Z" fill="#C3D5F0"/>
<path d="M13.5542 42.7087H62.531C62.7878 42.7087 62.9944 43.2372 62.9944 43.8893C62.9944 44.5402 62.7878 45.0686 62.531 45.0686H13.5542C13.2975 45.0686 13.0908 44.5402 13.0908 43.8893C13.0908 43.2427 13.2975 42.7087 13.5542 42.7087Z" fill="#C3D5F0"/>
<path d="M13.5542 48.7961H37.5123C37.769 48.7961 37.9757 49.3246 37.9757 49.9755C37.9757 50.632 37.769 51.1549 37.5123 51.1549H13.5542C13.2975 51.1549 13.0908 50.6276 13.0908 49.9755C13.0908 49.3246 13.2975 48.7961 13.5542 48.7961Z" fill="#C3D5F0"/>
<path d="M13.5542 75.5862H62.531C62.7878 75.5862 62.9944 76.1146 62.9944 76.7656C62.9944 77.422 62.7878 77.945 62.531 77.945H13.5542C13.2975 77.945 13.0908 77.4176 13.0908 76.7656C13.0908 76.1146 13.2975 75.5862 13.5542 75.5862Z" fill="#C3D5F0"/>
<path d="M13.5542 81.8169H37.5123C37.769 81.8169 37.9757 82.3442 37.9757 82.9963C37.9757 83.6473 37.769 84.1757 37.5123 84.1757H13.5542C13.2975 84.1757 13.0908 83.6473 13.0908 82.9963C13.0908 82.3442 13.2975 81.8169 13.5542 81.8169Z" fill="#C3D5F0"/>
<path d="M13.5542 63.126H62.531C62.7878 63.126 62.9944 63.6544 62.9944 64.3054C62.9944 64.9618 62.7878 65.4848 62.531 65.4848H13.5542C13.2975 65.4848 13.0908 64.9574 13.0908 64.3054C13.0908 63.6544 13.2975 63.126 13.5542 63.126Z" fill="#C3D5F0"/>
<path d="M13.5542 69.3567H62.531C62.7878 69.3567 62.9944 69.884 62.9944 70.5361C62.9944 71.1925 62.7878 71.7155 62.531 71.7155H13.5542C13.2975 71.7155 13.0908 71.187 13.0908 70.5361C13.0908 69.884 13.2975 69.3567 13.5542 69.3567Z" fill="#C3D5F0"/>
<path d="M13.5542 56.8953H62.531C62.7878 56.8953 62.9944 57.4237 62.9944 58.0757C62.9944 58.7267 62.7878 59.2551 62.531 59.2551H13.5542C13.2975 59.2551 13.0908 58.7267 13.0908 58.0757C13.0908 57.4237 13.2975 56.8953 13.5542 56.8953Z" fill="#C3D5F0"/>
<path d="M18.8046 42.7087H33.5132C33.6673 42.7087 33.8199 42.7393 33.9623 42.7986C34.1046 42.858 34.234 42.9449 34.3429 43.0546C34.4518 43.1642 34.5381 43.2944 34.597 43.4376C34.6559 43.5808 34.6861 43.7343 34.686 43.8893C34.686 44.2021 34.5624 44.502 34.3425 44.7232C34.1226 44.9443 33.8242 45.0686 33.5132 45.0686H18.8046C18.4936 45.0686 18.1953 44.9443 17.9754 44.7232C17.7555 44.502 17.6318 44.2021 17.6318 43.8893C17.6318 43.5764 17.7554 43.2763 17.9753 43.0549C18.1952 42.8336 18.4935 42.709 18.8046 42.7087Z" fill="#4D5995"/>
<path d="M14.0049 69.3567H29.1182C29.4292 69.3567 29.7275 69.4809 29.9475 69.7021C30.1674 69.9233 30.291 70.2233 30.291 70.5361C30.291 70.8489 30.1674 71.1489 29.9475 71.37C29.7275 71.5912 29.4292 71.7155 29.1182 71.7155H14.0049C13.6938 71.7155 13.3954 71.5913 13.1753 71.3701C12.9552 71.149 12.8313 70.849 12.8311 70.5361C12.8311 70.3811 12.8614 70.2277 12.9204 70.0845C12.9794 69.9414 13.0659 69.8113 13.1749 69.7018C13.284 69.5923 13.4133 69.5054 13.5558 69.4462C13.6982 69.387 13.8508 69.3565 14.0049 69.3567Z" fill="#4D5995"/>
<path d="M33.0175 56.8955H48.1308C48.4421 56.8955 48.7407 57.0198 48.9608 57.2412C49.181 57.4626 49.3046 57.7629 49.3046 58.076C49.3044 58.3889 49.1805 58.6889 48.9604 58.91C48.7403 59.1312 48.4419 59.2554 48.1308 59.2554H33.0175C32.7066 59.2551 32.4084 59.1307 32.1886 58.9096C31.9687 58.6885 31.845 58.3887 31.8447 58.076C31.8447 57.7631 31.9682 57.463 32.1882 57.2416C32.4081 57.0203 32.7064 56.8958 33.0175 56.8955Z" fill="#4D5995"/>
<path d="M24.288 30.1665H39.4013C39.5553 30.1664 39.7079 30.1968 39.8503 30.256C39.9926 30.3152 40.1219 30.4021 40.2309 30.5116C40.3398 30.6211 40.4262 30.7512 40.4851 30.8944C40.5439 31.0375 40.5742 31.191 40.574 31.3459C40.574 31.6587 40.4505 31.9587 40.2305 32.1799C40.0106 32.401 39.7123 32.5253 39.4013 32.5253H24.288C23.977 32.5253 23.6787 32.401 23.4587 32.1799C23.2388 31.9587 23.1152 31.6587 23.1152 31.3459C23.1152 31.0331 23.2388 30.7331 23.4587 30.5119C23.6787 30.2908 23.977 30.1665 24.288 30.1665Z" fill="#4D5995"/>
<path d="M45.0527 30.1665H60.166C60.32 30.1664 60.4726 30.1968 60.6149 30.256C60.7573 30.3152 60.8866 30.4021 60.9955 30.5116C61.1044 30.6211 61.1909 30.7512 61.2498 30.8944C61.3087 31.0375 61.3389 31.191 61.3387 31.3459C61.3387 31.6587 61.2152 31.9587 60.9952 32.1799C60.7753 32.401 60.477 32.5253 60.166 32.5253H45.0527C44.7417 32.525 44.4436 32.4006 44.2237 32.1795C44.0038 31.9584 43.8802 31.6586 43.8799 31.3459C43.8799 31.0331 44.0034 30.7331 44.2234 30.5119C44.4433 30.2908 44.7416 30.1665 45.0527 30.1665Z" fill="#4D5995"/>
<path d="M19.1497 10.7546L16.666 12.4821H18.3882L19.1497 10.7546Z" fill="#21307A"/>
<path d="M23.8474 10.8093H19.0758L16.7183 12.4504L14.0257 18.4841H16.6987L13.9941 24.5452L23.8158 16.8682H21.1472L23.8474 10.8093Z" fill="#21307A"/>
<path d="M19.0758 10.8093L16.7129 12.4504H18.3448L19.0758 10.8093Z" fill="#21307A"/>
<path d="M20.9422 13.2491H18.2344L18.304 13.0872H21.0118L20.9422 13.2491Z" fill="white"/>
<path d="M20.4604 14.3004H17.7461L17.8157 14.1384H20.5355L20.4604 14.3004Z" fill="white"/>
<path d="M19.9852 15.54H17.2773L17.347 15.3782H20.0548L19.9852 15.54Z" fill="white"/>
<path d="M19.4939 16.785H16.7861L16.8557 16.623H19.5625L19.4939 16.785Z" fill="white"/>
<path d="M34.0889 75.9176V92.8963C34.0889 95.7529 36.0743 98.0887 38.4993 98.0887H89.5887C92.0137 98.0887 93.9992 95.7529 93.9992 92.8963V57.3679C93.9992 54.5124 92.0137 52.1755 89.5887 52.1755H38.4993C36.0743 52.1755 34.0889 54.5124 34.0889 57.3679V67.267" fill="#C3D5F0"/>
<path d="M43.479 61.2836C44.1772 61.2836 44.7432 60.7144 44.7432 60.0123C44.7432 59.3101 44.1772 58.741 43.479 58.741C42.7808 58.741 42.2148 59.3101 42.2148 60.0123C42.2148 60.7144 42.7808 61.2836 43.479 61.2836Z" fill="#21307A"/>
<path d="M48.0307 64.1906H86.0468C86.3391 64.1641 86.6301 64.2539 86.8575 64.4406C87.0848 64.6273 87.2304 64.8961 87.263 65.1895C87.2306 65.483 87.0852 65.7521 86.8578 65.939C86.6304 66.126 86.3393 66.2159 86.0468 66.1894H48.0307C47.7382 66.2159 47.4471 66.126 47.2197 65.939C46.9923 65.7521 46.8469 65.483 46.8145 65.1895C46.8471 64.8961 46.9927 64.6273 47.22 64.4406C47.4474 64.2539 47.7384 64.1641 48.0307 64.1906Z" fill="#4D5995"/>
<path d="M48.0307 59.0133H86.0468C86.3391 58.9869 86.6301 59.0766 86.8575 59.2633C87.0848 59.45 87.2304 59.7189 87.263 60.0122C87.2306 60.3058 87.0852 60.5748 86.8578 60.7617C86.6304 60.9487 86.3393 61.0386 86.0468 61.0122H48.0307C47.7382 61.0386 47.4471 60.9487 47.2197 60.7617C46.9923 60.5748 46.8469 60.3058 46.8145 60.0122C46.8471 59.7189 46.9927 59.45 47.22 59.2633C47.4474 59.0766 47.7384 58.9869 48.0307 59.0133Z" fill="#F0F5FB"/>
<path d="M43.479 74.4791C44.1772 74.4791 44.7432 73.9099 44.7432 73.2078C44.7432 72.5057 44.1772 71.9365 43.479 71.9365C42.7808 71.9365 42.2148 72.5057 42.2148 73.2078C42.2148 73.9099 42.7808 74.4791 43.479 74.4791Z" fill="#21307A"/>
<path d="M48.0307 77.3849H86.0468C86.3393 77.3585 86.6304 77.4484 86.8578 77.6353C87.0852 77.8222 87.2306 78.0913 87.263 78.3849C87.2306 78.6784 87.0852 78.9475 86.8578 79.1344C86.6304 79.3214 86.3393 79.4113 86.0468 79.3848H48.0307C47.7382 79.4113 47.4471 79.3214 47.2197 79.1344C46.9923 78.9475 46.8469 78.6784 46.8145 78.3849C46.8469 78.0913 46.9923 77.8222 47.2197 77.6353C47.4471 77.4484 47.7382 77.3585 48.0307 77.3849Z" fill="#4D5995"/>
<path d="M48.0307 72.2077H86.0468C86.3393 72.1812 86.6304 72.2711 86.8578 72.4581C87.0852 72.645 87.2306 72.9141 87.263 73.2076C87.2306 73.5012 87.0852 73.7702 86.8578 73.9572C86.6304 74.1441 86.3393 74.234 86.0468 74.2076H48.0307C47.7382 74.234 47.4471 74.1441 47.2197 73.9572C46.9923 73.7702 46.8469 73.5012 46.8145 73.2076C46.8469 72.9141 46.9923 72.645 47.2197 72.4581C47.4471 72.2711 47.7382 72.1812 48.0307 72.2077Z" fill="#F0F5FB"/>
<path d="M43.479 87.9117C44.1772 87.9117 44.7432 87.3426 44.7432 86.6404C44.7432 85.9383 44.1772 85.3691 43.479 85.3691C42.7808 85.3691 42.2148 85.9383 42.2148 86.6404C42.2148 87.3426 42.7808 87.9117 43.479 87.9117Z" fill="#21307A"/>
<path d="M48.0307 90.8175H86.0468C86.3393 90.7911 86.6304 90.881 86.8578 91.0679C87.0852 91.2549 87.2306 91.5239 87.263 91.8175C87.2304 92.1108 87.0848 92.3796 86.8575 92.5663C86.6301 92.753 86.3391 92.8428 86.0468 92.8163H48.0307C47.7384 92.8428 47.4474 92.753 47.22 92.5663C46.9927 92.3796 46.8471 92.1108 46.8145 91.8175C46.8469 91.5239 46.9923 91.2549 47.2197 91.0679C47.4471 90.881 47.7382 90.7911 48.0307 90.8175Z" fill="#4D5995"/>
<path d="M48.0307 85.6405H86.0468C86.3393 85.6141 86.6304 85.704 86.8578 85.8909C87.0852 86.0779 87.2306 86.3469 87.263 86.6405C87.2304 86.9338 87.0848 87.2026 86.8575 87.3893C86.6301 87.576 86.3391 87.6657 86.0468 87.6393H48.0307C47.7384 87.6657 47.4474 87.576 47.22 87.3893C46.9927 87.2026 46.8471 86.9338 46.8145 86.6405C46.8469 86.3469 46.9923 86.0779 47.2197 85.8909C47.4471 85.704 47.7382 85.6141 48.0307 85.6405Z" fill="#F0F5FB"/>
<path d="M50.2727 17.4338H33.5831C32.513 17.4338 31.6455 18.3062 31.6455 19.3824V19.3834C31.6455 20.4596 32.513 21.332 33.5831 21.332H50.2727C51.3428 21.332 52.2103 20.4596 52.2103 19.3834V19.3824C52.2103 18.3062 51.3428 17.4338 50.2727 17.4338Z" fill="#21307A"/>
<path d="M44.893 10.8213H33.5831C32.513 10.8213 31.6455 11.6937 31.6455 12.7698V12.7709C31.6455 13.847 32.513 14.7194 33.5831 14.7194H44.893C45.9631 14.7194 46.8306 13.847 46.8306 12.7709V12.7698C46.8306 11.6937 45.9631 10.8213 44.893 10.8213Z" fill="#21307A"/>
</svg>
