<svg xmlns="http://www.w3.org/2000/svg" width="75" height="80" viewBox="0 0 75 80" fill="none">
  <g clip-path="url(#clip0_637_16772)">
    <path d="M69.3575 6.20379C69.383 4.6795 68.8308 3.20258 67.8129 2.07278C66.7951 0.942992 65.3879 0.244961 63.877 0.120389C63.759 0.113456 63.6401 0.108276 63.5203 0.108276C61.9425 0.138561 60.4412 0.797644 59.3465 1.94066C58.2517 3.08368 57.6532 4.61707 57.6822 6.20379V15.2474H69.3575V6.20379Z" fill="#4D5995"/>
    <path d="M62.0761 6.19336H4.34387V79.9999H62.0761V6.19336Z" fill="#21307A"/>
    <path d="M63.5005 0.108276H5.94582C4.3436 0.165007 2.82916 0.858479 1.73471 2.03661C0.640255 3.21473 0.0551277 4.78133 0.10769 6.39272V75.3724H57.6822V30.9732H57.6624V6.39272C57.6098 4.78133 58.1949 3.21473 59.2894 2.03661C60.3839 0.858479 61.8982 0.165007 63.5005 0.108276Z" fill="#F0F5FB"/>
    <path d="M57.7899 75.4808H-5.91413e-06V6.39187C-0.0507137 4.75234 0.54638 3.15938 1.66067 1.96149C2.77497 0.763601 4.31575 0.0583303 5.94583 0H63.5005V0.216645C61.9274 0.274942 60.4414 0.957319 59.3674 2.11456C58.2933 3.2718 57.7187 4.8097 57.7692 6.39187V30.865L57.7899 30.9733V75.4808ZM0.215422 75.2641H57.5745V31.0816L57.5538 30.9733V6.39187C57.5272 5.02178 57.9424 3.67989 58.7372 2.56679C59.532 1.45368 60.6637 0.629193 61.9632 0.216645H5.94583C4.37296 0.275166 2.88711 0.957661 1.81325 2.11488C0.739398 3.2721 0.164911 4.80985 0.215422 6.39187V75.2641Z" fill="#F3F1EE"/>
    <path d="M10.736 29.007H49.5295C49.7329 29.007 49.8966 29.4255 49.8966 29.942C49.8966 30.4576 49.7329 30.8762 49.5295 30.8762H10.736C10.5327 30.8762 10.369 30.4576 10.369 29.942C10.369 29.4255 10.5327 29.007 10.736 29.007Z" fill="#C3D5F0"/>
    <path d="M10.736 23.8942H49.5295C49.7329 23.8942 49.8966 24.3119 49.8966 24.8283C49.8966 25.344 49.7329 25.7625 49.5295 25.7625H10.736C10.5327 25.7625 10.369 25.344 10.369 24.8283C10.369 24.3119 10.5327 23.8942 10.736 23.8942Z" fill="#C3D5F0"/>
    <path d="M10.736 33.8286H49.5295C49.7329 33.8286 49.8966 34.2472 49.8966 34.7637C49.8966 35.2793 49.7329 35.6978 49.5295 35.6978H10.736C10.5327 35.6978 10.369 35.2793 10.369 34.7637C10.369 34.2515 10.5327 33.8286 10.736 33.8286Z" fill="#C3D5F0"/>
    <path d="M10.736 38.6503H29.7127C29.9161 38.6503 30.0797 39.0688 30.0797 39.5844C30.0797 40.1044 29.9161 40.5186 29.7127 40.5186H10.736C10.5327 40.5186 10.369 40.1009 10.369 39.5844C10.369 39.0688 10.5327 38.6503 10.736 38.6503Z" fill="#C3D5F0"/>
    <path d="M10.736 59.8702H49.5295C49.7329 59.8702 49.8966 60.2888 49.8966 60.8044C49.8966 61.3244 49.7329 61.7386 49.5295 61.7386H10.736C10.5327 61.7386 10.369 61.3209 10.369 60.8044C10.369 60.2888 10.5327 59.8702 10.736 59.8702Z" fill="#C3D5F0"/>
    <path d="M10.736 64.8053H29.7127C29.9161 64.8053 30.0797 65.223 30.0797 65.7395C30.0797 66.2551 29.9161 66.6736 29.7127 66.6736H10.736C10.5327 66.6736 10.369 66.2551 10.369 65.7395C10.369 65.223 10.5327 64.8053 10.736 64.8053Z" fill="#C3D5F0"/>
    <path d="M10.736 50.0007H49.5295C49.7329 50.0007 49.8966 50.4193 49.8966 50.9349C49.8966 51.4549 49.7329 51.8691 49.5295 51.8691H10.736C10.5327 51.8691 10.369 51.4514 10.369 50.9349C10.369 50.4193 10.5327 50.0007 10.736 50.0007Z" fill="#C3D5F0"/>
    <path d="M10.736 54.9358H49.5295C49.7329 54.9358 49.8966 55.3535 49.8966 55.87C49.8966 56.3899 49.7329 56.8041 49.5295 56.8041H10.736C10.5327 56.8041 10.369 56.3856 10.369 55.87C10.369 55.3535 10.5327 54.9358 10.736 54.9358Z" fill="#C3D5F0"/>
    <path d="M10.736 45.0656H49.5295C49.7329 45.0656 49.8966 45.4841 49.8966 46.0006C49.8966 46.5162 49.7329 46.9347 49.5295 46.9347H10.736C10.5327 46.9347 10.369 46.5162 10.369 46.0006C10.369 45.4841 10.5327 45.0656 10.736 45.0656Z" fill="#C3D5F0"/>
    <path d="M14.8947 33.8286H26.5451C26.6671 33.8286 26.788 33.8528 26.9008 33.8998C27.0135 33.9468 27.116 34.0157 27.2022 34.1025C27.2885 34.1894 27.3569 34.2925 27.4035 34.4059C27.4501 34.5194 27.4741 34.6409 27.474 34.7637C27.474 35.0114 27.3761 35.249 27.2019 35.4242C27.0277 35.5994 26.7914 35.6978 26.5451 35.6978H14.8947C14.6483 35.6978 14.4121 35.5994 14.2379 35.4242C14.0637 35.249 13.9658 35.0114 13.9658 34.7637C13.9658 34.5158 14.0636 34.2781 14.2378 34.1028C14.412 33.9275 14.6482 33.8288 14.8947 33.8286Z" fill="#4D5995"/>
    <path d="M11.0928 54.9359H23.0637C23.3101 54.9359 23.5464 55.0343 23.7206 55.2095C23.8948 55.3847 23.9927 55.6223 23.9927 55.8701C23.9927 56.1178 23.8948 56.3555 23.7206 56.5307C23.5464 56.7058 23.3101 56.8043 23.0637 56.8043H11.0928C10.8463 56.8043 10.61 56.7059 10.4357 56.5307C10.2613 56.3555 10.1633 56.1179 10.163 55.8701C10.163 55.7473 10.1871 55.6258 10.2338 55.5124C10.2806 55.399 10.3491 55.296 10.4354 55.2093C10.5218 55.1225 10.6242 55.0537 10.737 55.0068C10.8498 54.9599 10.9707 54.9358 11.0928 54.9359Z" fill="#4D5995"/>
    <path d="M26.1521 45.0656H38.123C38.3696 45.0656 38.6061 45.164 38.7804 45.3394C38.9548 45.5147 39.0528 45.7526 39.0528 46.0006C39.0526 46.2484 38.9545 46.486 38.7801 46.6612C38.6058 46.8364 38.3695 46.9347 38.123 46.9347H26.1521C25.9058 46.9345 25.6696 46.836 25.4955 46.6609C25.3213 46.4857 25.2234 46.2483 25.2231 46.0006C25.2231 45.7527 25.321 45.515 25.4952 45.3397C25.6693 45.1644 25.9056 45.0658 26.1521 45.0656Z" fill="#4D5995"/>
    <path d="M19.2377 23.8942H31.2086C31.3306 23.8941 31.4515 23.9181 31.5642 23.965C31.677 24.0119 31.7794 24.0807 31.8657 24.1675C31.952 24.2543 32.0204 24.3573 32.067 24.4707C32.1137 24.5841 32.1376 24.7056 32.1375 24.8283C32.1375 25.0761 32.0397 25.3137 31.8655 25.4889C31.6912 25.6641 31.455 25.7625 31.2086 25.7625H19.2377C18.9913 25.7625 18.7551 25.6641 18.5808 25.4889C18.4066 25.3137 18.3088 25.0761 18.3088 24.8283C18.3088 24.5806 18.4066 24.343 18.5808 24.1678C18.7551 23.9926 18.9913 23.8942 19.2377 23.8942Z" fill="#4D5995"/>
    <path d="M35.6852 23.8942H47.6562C47.7782 23.8941 47.899 23.9181 48.0117 23.965C48.1245 24.0119 48.2269 24.0807 48.3132 24.1675C48.3995 24.2543 48.468 24.3573 48.5146 24.4707C48.5613 24.5841 48.5852 24.7056 48.5851 24.8283C48.5851 25.0761 48.4872 25.3137 48.313 25.4889C48.1388 25.6641 47.9025 25.7625 47.6562 25.7625H35.6852C35.4389 25.7623 35.2028 25.6638 35.0286 25.4886C34.8545 25.3135 34.7565 25.076 34.7563 24.8283C34.7563 24.5806 34.8542 24.343 35.0284 24.1678C35.2026 23.9926 35.4388 23.8942 35.6852 23.8942Z" fill="#4D5995"/>
    <path d="M15.1678 8.51843L13.2005 9.88674H14.5646L15.1678 8.51843Z" fill="#21307A"/>
    <path d="M18.8887 8.56177H15.1092L13.2419 9.86164L11.1092 14.6408H13.2264L11.0842 19.4417L18.8637 13.3609H16.7499L18.8887 8.56177Z" fill="#21307A"/>
    <path d="M15.1092 8.56177L13.2376 9.86164H14.5302L15.1092 8.56177Z" fill="#21307A"/>
    <path d="M16.5871 10.4942H14.4423L14.4974 10.366H16.6422L16.5871 10.4942Z" fill="white"/>
    <path d="M16.2053 11.327H14.0554L14.1105 11.1987H16.2648L16.2053 11.327Z" fill="white"/>
    <path d="M15.8296 12.3089H13.6848L13.74 12.1807H15.8848L15.8296 12.3089Z" fill="white"/>
    <path d="M15.4401 13.295H13.2953L13.3505 13.1667H15.4944L15.4401 13.295Z" fill="white"/>
    <path d="M27.0009 60.1328V73.5812C27.0009 75.8438 28.5735 77.694 30.4943 77.694H70.9612C72.8819 77.694 74.4546 75.8438 74.4546 73.5812V45.4399C74.4546 43.1781 72.8819 41.3271 70.9612 41.3271H30.4943C28.5735 41.3271 27.0009 43.1781 27.0009 45.4399V53.2807" fill="#C3D5F0"/>
    <path d="M34.4383 48.5414C34.9913 48.5414 35.4396 48.0906 35.4396 47.5344C35.4396 46.9783 34.9913 46.5275 34.4383 46.5275C33.8853 46.5275 33.437 46.9783 33.437 47.5344C33.437 48.0906 33.8853 48.5414 34.4383 48.5414Z" fill="#21307A"/>
    <path d="M38.0438 50.8439H68.1555C68.387 50.823 68.6175 50.8941 68.7976 51.042C68.9777 51.1898 69.093 51.4028 69.1189 51.6351C69.0932 51.8676 68.978 52.0808 68.7979 52.2288C68.6178 52.3769 68.3872 52.4481 68.1555 52.4272H38.0438C37.8121 52.4481 37.5815 52.3769 37.4014 52.2288C37.2213 52.0808 37.106 51.8676 37.0804 51.6351C37.1063 51.4028 37.2216 51.1898 37.4016 51.042C37.5817 50.8941 37.8122 50.823 38.0438 50.8439Z" fill="#4D5995"/>
    <path d="M38.0438 46.7432H68.1555C68.387 46.7223 68.6175 46.7934 68.7976 46.9412C68.9777 47.0891 69.093 47.3021 69.1189 47.5344C69.0932 47.7669 68.978 47.98 68.7979 48.1281C68.6178 48.2762 68.3872 48.3474 68.1555 48.3265H38.0438C37.8121 48.3474 37.5815 48.2762 37.4014 48.1281C37.2213 47.98 37.106 47.7669 37.0804 47.5344C37.1063 47.3021 37.2216 47.0891 37.4016 46.9412C37.5817 46.7934 37.8122 46.7223 38.0438 46.7432Z" fill="#F0F5FB"/>
    <path d="M34.4383 58.9932C34.9913 58.9932 35.4396 58.5423 35.4396 57.9862C35.4396 57.4301 34.9913 56.9792 34.4383 56.9792C33.8853 56.9792 33.437 57.4301 33.437 57.9862C33.437 58.5423 33.8853 58.9932 34.4383 58.9932Z" fill="#21307A"/>
    <path d="M38.0438 61.2948H68.1555C68.3872 61.2739 68.6178 61.3451 68.7979 61.4932C68.978 61.6413 69.0932 61.8544 69.1189 62.0869C69.0932 62.3194 68.978 62.5325 68.7979 62.6806C68.6178 62.8287 68.3872 62.8999 68.1555 62.879H38.0438C37.8121 62.8999 37.5815 62.8287 37.4014 62.6806C37.2213 62.5325 37.106 62.3194 37.0804 62.0869C37.106 61.8544 37.2213 61.6413 37.4014 61.4932C37.5815 61.3451 37.8121 61.2739 38.0438 61.2948Z" fill="#4D5995"/>
    <path d="M38.0438 57.1941H68.1555C68.3872 57.1732 68.6178 57.2444 68.7979 57.3925C68.978 57.5405 69.0932 57.7537 69.1189 57.9862C69.0932 58.2187 68.978 58.4318 68.7979 58.5799C68.6178 58.728 68.3872 58.7992 68.1555 58.7782H38.0438C37.8121 58.7992 37.5815 58.728 37.4014 58.5799C37.2213 58.4318 37.106 58.2187 37.0804 57.9862C37.106 57.7537 37.2213 57.5405 37.4014 57.3925C37.5815 57.2444 37.8121 57.1732 38.0438 57.1941Z" fill="#F0F5FB"/>
    <path d="M34.4383 69.6331C34.9913 69.6331 35.4396 69.1822 35.4396 68.6261C35.4396 68.07 34.9913 67.6191 34.4383 67.6191C33.8853 67.6191 33.437 68.07 33.437 68.6261C33.437 69.1822 33.8853 69.6331 34.4383 69.6331Z" fill="#21307A"/>
    <path d="M38.0438 71.9347H68.1555C68.3872 71.9138 68.6178 71.985 68.7979 72.1331C68.978 72.2811 69.0932 72.4943 69.1189 72.7268C69.093 72.9591 68.9777 73.172 68.7976 73.3199C68.6175 73.4678 68.387 73.5389 68.1555 73.5179H38.0438C37.8122 73.5389 37.5817 73.4678 37.4016 73.3199C37.2216 73.172 37.1063 72.9591 37.0804 72.7268C37.106 72.4943 37.2213 72.2811 37.4014 72.1331C37.5815 71.985 37.8121 71.9138 38.0438 71.9347Z" fill="#4D5995"/>
    <path d="M38.0438 67.834H68.1555C68.3872 67.8131 68.6178 67.8843 68.7979 68.0324C68.978 68.1804 69.0932 68.3936 69.1189 68.6261C69.093 68.8584 68.9777 69.0713 68.7976 69.2192C68.6175 69.3671 68.387 69.4382 68.1555 69.4172H38.0438C37.8122 69.4382 37.5817 69.3671 37.4016 69.2192C37.2216 69.0713 37.1063 68.8584 37.0804 68.6261C37.106 68.3936 37.2213 68.1804 37.4014 68.0324C37.5815 67.8843 37.8121 67.8131 38.0438 67.834Z" fill="#F0F5FB"/>
    <path d="M39.8197 13.809H26.6002C25.7526 13.809 25.0655 14.5 25.0655 15.3523V15.3532C25.0655 16.2056 25.7526 16.8966 26.6002 16.8966H39.8197C40.6673 16.8966 41.3545 16.2056 41.3545 15.3532V15.3523C41.3545 14.5 40.6673 13.809 39.8197 13.809Z" fill="#21307A"/>
    <path d="M35.5586 8.57129H26.6002C25.7526 8.57129 25.0655 9.26228 25.0655 10.1147V10.1155C25.0655 10.9679 25.7526 11.6589 26.6002 11.6589H35.5586C36.4062 11.6589 37.0933 10.9679 37.0933 10.1155V10.1147C37.0933 9.26228 36.4062 8.57129 35.5586 8.57129Z" fill="#21307A"/>
  </g>
  <defs>
    <clipPath id="clip0_637_16772">
      <rect width="74.4554" height="80" fill="white"/>
    </clipPath>
  </defs>
</svg>