<svg width="74" height="61" viewBox="0 0 74 61" fill="none" xmlns="http://www.w3.org/2000/svg">
<path d="M4 26C4 24.8954 4.89543 24 6 24H58C59.1046 24 60 24.8954 60 26V59H4V26Z" fill="#B8CAE9"/>
<rect y="59" width="64" height="2" fill="#4F5991"/>
<rect x="10.0864" y="31.0521" width="7" height="7" rx="1" fill="#D5E0F2"/>
<rect x="10.0864" y="40.0178" width="7" height="7" rx="1" fill="#D5E0F2"/>
<rect x="10.0864" y="48.9836" width="7" height="7" rx="1" fill="#D5E0F2"/>
<rect x="19.0522" y="31.0521" width="7" height="7" rx="1" fill="#D5E0F2"/>
<rect x="19.0522" y="40.0178" width="7" height="7" rx="1" fill="#D5E0F2"/>
<rect x="19.0522" y="48.9836" width="7" height="7" rx="1" fill="#D5E0F2"/>
<rect x="28.0176" y="31.0521" width="7" height="7" rx="1" fill="#D5E0F2"/>
<rect x="28.0176" y="40.0178" width="7" height="7" rx="1" fill="#D5E0F2"/>
<rect x="38.1045" y="31.0521" width="7" height="7" rx="1" fill="#D5E0F2"/>
<rect x="38.1045" y="40.0178" width="7" height="7" rx="1" fill="#D5E0F2"/>
<path d="M4 27H60" stroke="#4F5991" stroke-width="0.5"/>
<path fill-rule="evenodd" clip-rule="evenodd" d="M50.0401 4.00007C53.8701 4.00007 56.9748 7.10483 56.9748 10.9347C56.9748 13.516 55.5645 15.7678 53.4724 16.9618L53.4724 22.2823L51.4411 24.3136L53.4724 26.4151L51.4411 28.5865L53.4724 30.6179L49.83 35.3811L46.6779 31.9488L46.6779 17.0012C44.5473 15.8179 43.1055 13.5447 43.1055 10.9347C43.1055 7.10483 46.2102 4.00007 50.0401 4.00007ZM49.9703 5.82132C50.8987 5.82132 51.6514 6.57399 51.6514 7.50245C51.6514 8.43092 50.8987 9.18358 49.9703 9.18358C49.0418 9.18358 48.2891 8.43092 48.2891 7.50245C48.2891 6.57399 49.0418 5.82132 49.9703 5.82132Z" fill="#4F5991"/>
<path fill-rule="evenodd" clip-rule="evenodd" d="M46.9038 4.90356C49.6119 2.19541 54.0027 2.19541 56.7109 4.90356C58.5361 6.72875 59.1312 9.31822 58.4961 11.6418L62.2583 15.4039V18.2767L65.1806 18.3263L65.2797 21.2981L68.1525 21.2981L68.945 27.2418L64.2891 27.0437L53.7196 16.4742C51.3763 17.1441 48.7493 16.5562 46.9038 14.7107C44.1956 12.0025 44.1956 7.61172 46.9038 4.90356ZM48.1418 6.24086C48.7983 5.58434 49.8628 5.58433 50.5193 6.24086C51.1758 6.89738 51.1758 7.96182 50.5193 8.61834C49.8628 9.27486 48.7983 9.27486 48.1418 8.61834C47.4853 7.96182 47.4853 6.89738 48.1418 6.24086Z" fill="#D5E0F2"/>
<path d="M49.0005 6.84619C48.0424 6.2992 47.5805 5.89445 47.0005 4.84619" stroke="#4F5991" stroke-width="0.5"/>
</svg>
