<svg width="2721" height="534" viewBox="0 0 2721 534" fill="none" xmlns="http://www.w3.org/2000/svg">
<g clip-path="url(#clip0_4_9)">
<path d="M381.661 234.823H292.101L384.291 11.653C386.641 5.52295 382.571 0.0529492 377.021 0.0229492L194.771 0.0629272C192.641 0.0629272 190.571 0.632944 189.011 1.89294C189.011 1.89294 122.661 57.7729 102.031 75.3929C99.4908 77.5629 98.2508 79.5229 96.9908 82.6829C86.4008 109.173 0.700778 315.873 0.700778 315.873C-2.03922 323.303 3.84082 327.153 8.24082 327.163H124.421C124.421 327.163 58.1508 490.153 58.1308 490.243L45.1508 521.993C42.0108 529.683 51.2108 536.473 57.6308 531.203C57.6308 531.203 377.191 257.323 386.811 249.293C392.021 244.943 390.521 234.823 381.651 234.823H381.661ZM240.821 203.413L228.991 232.033C228.301 233.723 226.651 234.823 224.831 234.823L101.481 234.713C99.7108 234.713 98.5008 232.923 99.1608 231.273L110.941 202.773C111.631 201.073 113.281 199.963 115.111 199.963H238.511C240.291 199.963 241.501 201.763 240.821 203.413ZM275.721 119.143L263.911 147.743C263.221 149.433 261.571 150.533 259.751 150.533L136.371 150.483C134.601 150.483 133.391 148.693 134.051 147.043L145.811 118.503C146.501 116.803 148.151 115.693 149.981 115.693H273.401C275.181 115.693 276.391 117.493 275.711 119.143H275.721Z" fill="#3259E4"/>
<path d="M752.751 141.573H814.341V168.843C833.391 142.683 864.261 132.773 899.061 132.773C965.861 132.773 1018.95 177.473 1018.95 269.423C1018.95 361.373 965.861 406.323 899.061 406.323C865.281 406.323 836.071 396.673 817.021 372.033H817.261V492.523H752.761V141.573H752.751ZM886.281 356.503C929.301 356.503 958.231 325.593 958.231 269.473C958.231 213.353 929.301 182.693 886.281 182.693C843.261 182.693 814.331 213.603 814.331 269.473C814.331 325.343 843.261 356.503 886.281 356.503Z" fill="black"/>
<path d="M1184.05 134.693C1265.58 134.693 1322.48 182.953 1322.48 271.853C1322.48 360.753 1265.58 409.263 1184.05 409.263C1102.52 409.263 1045.88 361.003 1045.88 271.853C1045.88 182.703 1102.52 134.693 1184.05 134.693ZM1184.06 355.933C1227.98 355.933 1256.09 325.943 1256.09 271.863C1256.09 217.783 1227.99 188.033 1184.06 188.033C1140.13 188.033 1112.27 218.023 1112.27 271.863C1112.27 325.703 1140.37 355.933 1184.06 355.933Z" fill="black"/>
<path d="M1941.12 141.713V174.263C1951.28 152.673 1970.83 142.043 2013.75 142.043H2063.13L2042.23 193.573H2014.77C1962.95 193.573 1944.05 214.393 1944.05 270.533V401.593H1879.41V141.723H1941.12V141.713Z" fill="black"/>
<path d="M434.521 294.213V291.673H503.221V294.213C503.221 329.323 522.561 354.773 579.571 354.773H584.661C628.431 354.773 652.351 335.433 652.351 306.943V304.403C652.351 277.433 636.581 265.213 606.541 258.093L531.721 240.793C480.321 228.583 446.731 200.073 446.731 144.093V139.003C446.731 75.3529 497.641 37.1929 578.561 37.1929H583.651C664.581 37.1929 714.451 76.8829 714.451 141.523H646.761C646.761 113.033 625.891 89.093 584.161 89.093H579.071C536.821 89.093 513.421 108.953 513.421 136.923V139.463C513.421 162.863 527.171 176.613 558.721 184.243L636.081 202.573C688.001 214.783 720.571 241.763 720.571 298.263V303.353C720.571 368.503 669.171 406.673 584.681 406.673H579.591C473.201 406.693 434.521 359.873 434.521 294.223V294.213Z" fill="black"/>
<path d="M1378.81 344.263V191.583H1335.56V142.223H1369.14C1377.8 142.223 1381.86 137.643 1381.86 128.983V40.413H1443.45V142.203H1506.56V191.563H1443.45V321.793C1443.45 339.093 1450.58 344.703 1466.85 344.703H1506.54V401.773H1436.81C1395.08 401.773 1378.79 383.963 1378.79 344.263H1378.81Z" fill="black"/>
<path d="M2700.65 191.093L2721.18 141.743H2637.53L2637.54 39.9829H2575.96V128.503C2575.95 137.163 2571.88 141.743 2563.23 141.743H2462.02V112.733C2462.02 93.9029 2469.16 87.2929 2486.45 87.2929H2524.62V39.9529H2456.41C2415.71 39.9529 2397.37 60.3029 2397.37 103.063V141.743H2354.12V191.103H2397.37V401.303H2462.01V191.103H2523.6H2572.89V343.803C2572.89 383.493 2589.18 401.303 2630.91 401.303H2700.64V344.473H2660.95C2644.66 344.473 2637.52 338.863 2637.52 321.563V191.093H2700.64H2700.65Z" fill="black"/>
<path d="M1542.41 40.4329H1680.83C1797.39 40.4329 1845.22 107.603 1845.22 218.063V223.153C1845.22 332.573 1799.92 401.793 1680.83 401.793H1542.41V40.4429V40.4329ZM1772.46 223.143V218.053C1772.46 139.683 1749.04 96.9229 1679.34 96.9229H1610.12V345.293H1679.34C1749.57 345.293 1772.46 302.533 1772.46 223.153V223.143Z" fill="black"/>
<path d="M2263.7 401.703V371.223C2244.4 397.383 2210.62 407.293 2175.82 407.293C2108.77 407.293 2055.68 362.333 2055.68 270.393C2055.68 178.453 2108.77 133.743 2175.82 133.743C2210.62 133.743 2244.4 143.653 2263.7 169.813V141.603H2322.37V401.713H2263.7V401.703ZM2190.55 359.793C2235 359.793 2264.46 328.043 2264.46 270.383C2264.46 212.723 2235 181.233 2190.55 181.233C2146.1 181.233 2116.38 212.983 2116.38 270.383C2116.38 327.783 2146.1 359.793 2190.55 359.793Z" fill="black"/>
</g>
<defs>
<clipPath id="clip0_4_9">
<rect width="2721" height="533" fill="white" transform="translate(0 0.0229492)"/>
</clipPath>
</defs>
</svg>
