<svg width="96" height="112" viewBox="0 0 96 112" fill="none" xmlns="http://www.w3.org/2000/svg">
<path d="M72.8032 88.597H4.30523C2.44178 88.597 0.963867 87.1182 0.963867 85.2537V4.37197C0.963867 2.50745 2.44178 1.02869 4.30523 1.02869H72.739C74.6024 1.02869 76.0803 2.50745 76.0803 4.37197V85.318C76.0803 87.1182 74.6024 88.597 72.8032 88.597Z" fill="#C3D5F0"/>
<path d="M92.2726 104.863L23.1963 111.164C21.3971 111.293 19.855 110.135 19.6622 108.592L10.1522 21.4741C9.95938 19.8668 11.3088 18.4523 13.0437 18.3237L82.12 12.0229C83.9192 11.8944 85.4614 13.0516 85.6542 14.5947L95.1642 101.649C95.357 103.32 94.0718 104.735 92.2726 104.863Z" fill="#4D5995"/>
<path d="M88.2253 101.199L20.6911 106.213C18.9562 106.342 17.414 105.185 17.2855 103.642L10.0245 19.3524C9.89597 17.8094 11.1811 16.4592 12.916 16.3306L80.4502 11.3157C82.1851 11.1871 83.7273 12.3444 83.8558 13.8874L91.1169 98.2411C91.2454 99.7198 89.9602 101.07 88.2253 101.199Z" fill="#C3D5F0"/>
<path d="M12.6589 7.1366H82.1208C83.7272 7.1366 85.0766 8.48677 85.0766 10.0941V96.5051C85.0766 98.1125 83.7272 99.4627 82.1208 99.4627H12.6589C11.0525 99.4627 9.70312 98.1125 9.70312 96.5051V10.1584C9.70312 8.48677 11.0525 7.1366 12.6589 7.1366Z" fill="white"/>
<path d="M19.5341 3.27893H18.763C16.7068 3.27893 15.0361 4.95057 15.0361 7.00798V7.26515H16.4498V7.00798C16.4498 5.7221 17.4779 4.6934 18.8273 4.6934H19.5984C20.8835 4.6934 21.9116 5.7221 21.9759 7.00798V14.2732C21.9759 15.5591 20.9478 16.5878 19.5984 16.5878H18.8273C17.5422 16.5878 16.514 15.5591 16.4498 14.2732V12.3444H15.0361V14.2732C15.0361 16.3306 16.7068 18.0022 18.763 18.0022H19.5341C21.5904 18.0022 23.261 16.3306 23.261 14.2732V7.00798C23.261 4.95057 21.5904 3.27893 19.5341 3.27893Z" fill="#4D5995"/>
<path d="M74.0242 54.264C74.2812 54.264 74.474 54.4569 74.474 54.7141V55.2927C74.474 55.5499 74.2812 55.7428 74.0242 55.7428H23.1969C22.9398 55.7428 22.7471 55.5499 22.7471 55.2927V54.7141C22.7471 54.4569 22.9398 54.264 23.1969 54.264" fill="#D2E0F4"/>
<path d="M61.6868 59.4076C61.9439 59.4076 62.1366 59.6005 62.1366 59.8576V60.4363C62.1366 60.6935 61.9439 60.8863 61.6868 60.8863H23.1969C22.9398 60.8863 22.7471 60.6935 22.7471 60.4363V59.8576C22.7471 59.6005 22.9398 59.4076 23.1969 59.4076" fill="#D2E0F4"/>
<path d="M74.0701 66.8008C74.3271 66.8008 74.5199 66.9936 74.5199 67.2508V67.8295C74.5199 68.0866 74.3271 68.2795 74.0701 68.2795H23.2428C22.9857 68.2795 22.793 68.0866 22.793 67.8295V67.2508C22.793 66.9936 22.9857 66.8008 23.2428 66.8008" fill="#D2E0F4"/>
<path d="M74.0701 71.9443C74.3271 71.9443 74.5199 72.1372 74.5199 72.3944V72.973C74.5199 73.2302 74.3271 73.423 74.0701 73.423H23.2428C22.9857 73.423 22.793 73.2302 22.793 72.973V72.3944C22.793 72.1372 22.9857 71.9443 23.2428 71.9443" fill="#D2E0F4"/>
<path d="M23.2428 79.8813C22.9857 79.8813 22.793 79.6885 22.793 79.4313V78.8526C22.793 78.5954 22.9857 78.4026 23.2428 78.4026H74.0701C74.3271 78.4026 74.5199 78.5954 74.5199 78.8526V79.4313C74.5199 79.6885 74.3271 79.8813 74.0701 79.8813" fill="#D2E0F4"/>
<path d="M23.2428 85.0249C22.9857 85.0249 22.793 84.832 22.793 84.5748V83.9962C22.793 83.739 22.9857 83.5461 23.2428 83.5461H74.0701C74.3271 83.5461 74.5199 83.739 74.5199 83.9962V84.5748C74.5199 84.832 74.3271 85.0249 74.0701 85.0249" fill="#D2E0F4"/>
<path d="M54.8754 32.9828H51.3413V31.6326H50.4417V30.2181C50.4417 29.7681 50.6345 29.318 51.02 28.9966C52.1767 28.0322 52.3694 26.3605 51.4698 25.1389C51.4056 25.0103 51.2771 24.8818 51.1485 24.8175C50.0562 23.7888 48.3212 23.8531 47.2931 24.946C46.265 26.039 46.3293 27.775 47.4216 28.8037C47.4859 28.868 47.5501 28.9323 47.6144 28.9966C47.9999 29.318 48.1927 29.7681 48.1927 30.2824V31.6326H47.2931V32.9828H43.6947C43.3734 32.9828 43.1807 33.24 43.1807 33.4971V36.0689C43.1807 36.3904 43.4377 36.5832 43.6947 36.5832H43.8232C43.9517 37.2262 44.5301 37.7405 45.1726 37.7405H53.3333C53.9758 37.7405 54.5542 37.2905 54.6827 36.5832H54.8112C55.1325 36.5832 55.3252 36.3261 55.3252 36.0689V33.4971C55.4538 33.1757 55.1967 32.9828 54.8754 32.9828ZM47.8714 28.5465C47.2289 28.0322 46.9076 27.2606 47.0361 26.4891C47.2289 25.2675 48.3855 24.3674 49.6064 24.5603C50.8273 24.7532 51.7268 25.9105 51.5341 27.132C51.4698 27.7107 51.1485 28.225 50.6987 28.6108C50.2489 28.9966 49.9277 29.5752 49.9919 30.2181V31.6326H48.6425V30.2181C48.6425 29.5752 48.3212 28.9966 47.8714 28.5465ZM47.6787 32.0184H50.8273V32.9185H47.6787V32.0184ZM53.3975 37.2905H45.1726C44.7871 37.2905 44.4016 37.0333 44.273 36.5832H54.2329C54.1686 36.969 53.7831 37.2905 53.3975 37.2905ZM54.9397 36.0689C54.9397 36.1332 54.8754 36.1332 54.8754 36.1332H43.6947C43.6305 36.1332 43.6305 36.0689 43.6305 36.0689V33.4971C43.6305 33.4328 43.6947 33.4328 43.6947 33.4328H54.8754C54.9397 33.4328 54.9397 33.4971 54.9397 33.4971V36.0689Z" fill="white"/>
<path d="M45.2363 39.0264H53.3327" stroke="white" stroke-width="0.543" stroke-miterlimit="10" stroke-linecap="round" stroke-linejoin="round"/>
<path d="M55.0033 39.0907V39.9265H50.3125V30.8611L51.3406 30.7325L53.3326 30.4753V37.2905C53.3326 37.6763 53.5896 38.062 53.9751 38.1263L54.3607 38.2549C54.7462 38.3835 55.0033 38.705 55.0033 39.0907Z" fill="#C3D5F0"/>
<path d="M52.498 32.3399C52.7551 32.5327 53.0763 32.6613 53.3976 32.5327V30.4753L51.4057 30.7325L50.8916 30.7968L52.498 32.3399Z" fill="#7A83AF"/>
<path d="M50.7623 24.5603L50.6338 29.5752L52.433 31.2468C52.8185 31.5683 53.3326 31.5683 53.7181 31.1825C53.7181 31.1825 53.7824 31.1182 53.7824 31.0539L55.0675 29.1894C55.7101 28.2893 55.9029 27.1963 55.6458 26.1676L54.8105 22.5671L50.7623 24.5603Z" fill="#A6ACCA"/>
<path d="M55.1318 29.318L53.8466 31.1825C53.5896 31.5683 53.0113 31.6969 52.6258 31.3754C52.5615 31.3754 52.5615 31.3111 52.4972 31.3111L50.6338 29.5752L50.7623 24.5603L54.2322 22.8886L54.8748 22.5671L55.1318 23.7244L55.7101 26.1676C55.9671 27.3249 55.7101 28.4179 55.1318 29.318Z" fill="#C3D5F0"/>
<path d="M58.4731 21.217C58.4089 21.2813 58.4089 21.3456 58.3446 21.3456L57.0595 22.8886C56.7382 23.2744 56.1599 23.3387 55.7101 23.0815L54.8747 22.5672L54.2322 22.8886L50.7623 24.5603L49.9912 20.9598L51.1478 16.7807L53.5896 16.0735C54.1679 15.8806 54.8105 16.0735 55.196 16.5878L55.8386 17.3594C55.9029 17.4237 55.9671 17.488 56.0956 17.5522C56.0956 17.5522 56.1599 17.5522 56.1599 17.6165C56.2884 17.6808 56.4169 17.7451 56.5454 17.7451H56.6097H56.6739H56.8667C57.445 17.8094 57.8948 18.2595 57.9591 18.9024L58.0233 19.5454L58.4089 19.9311C58.6659 20.2526 58.7302 20.7669 58.4731 21.217Z" fill="#C3D5F0"/>
<path d="M54.8748 22.6315L55.7101 23.1458C56.1599 23.403 56.674 23.2744 57.0595 22.9529L58.3447 21.4099C58.4089 21.3456 58.4089 21.2813 58.4732 21.2813C58.4089 21.217 58.3446 21.1527 58.2804 21.0241L57.8948 20.574L57.8306 19.9311C57.7663 19.3525 57.3165 18.8381 56.7382 18.7738H56.5455C56.3527 18.7738 56.1599 18.6452 55.9671 18.5809L55.7744 18.7095C55.4531 18.9024 55.1961 19.2239 55.0033 19.5453L53.9752 21.5385L53.9109 21.6027C53.7181 21.9885 53.7824 22.4386 54.0394 22.6957C54.1037 22.76 54.1679 22.8243 54.2322 22.8886C54.5535 23.2101 54.8105 23.4673 55.1318 23.7887L54.8748 22.6315Z" fill="#4D5995"/>
<path d="M58.4731 21.217C58.4088 21.2813 58.4088 21.3456 58.3446 21.3456L57.0595 22.8886C56.7382 23.2744 56.1598 23.3387 55.71 23.0815L54.8747 22.5671L54.0394 21.6027C53.9751 21.5384 53.9751 21.5384 53.9751 21.4741C53.7823 21.1527 53.7823 20.7669 53.9109 20.5097L55.0675 18.4523C55.2603 18.1309 55.5173 17.8094 55.8386 17.6165L56.0313 17.4879C56.0313 17.4879 56.0956 17.4879 56.0956 17.5522C56.1599 17.6165 56.2241 17.6165 56.2884 17.6808C56.3526 17.6808 56.4169 17.7451 56.4169 17.7451H56.4811H56.5454H56.7382C57.3165 17.8094 57.7663 18.2594 57.8305 18.9024L57.8948 19.5453L58.2803 19.9311C58.6659 20.2526 58.7301 20.7669 58.4731 21.217Z" fill="#C3D5F0"/>
<path d="M53.5902 24.496C53.1404 24.496 52.7549 24.1102 52.7549 23.6602C52.7549 23.4673 52.8191 23.3387 52.9477 23.1458C53.0119 23.0172 53.2047 23.0172 53.2689 23.0815C53.3975 23.1458 53.3975 23.3387 53.3332 23.403C53.2047 23.5316 53.2689 23.7888 53.3975 23.9174C53.526 24.0459 53.783 23.9817 53.9115 23.8531C53.9758 23.7245 54.1685 23.7245 54.2328 23.7888C54.3613 23.8531 54.3613 24.0459 54.2971 24.1102C54.1043 24.3674 53.8473 24.496 53.5902 24.496ZM54.1685 26.9392C54.1043 26.9392 54.1043 26.9392 54.04 26.9392C53.5902 26.8749 53.2689 26.4248 53.3332 25.9748C53.3332 25.7819 53.4617 25.589 53.6545 25.4604C53.783 25.3961 53.9115 25.3961 53.9758 25.5247C54.04 25.6533 54.04 25.7819 53.9115 25.8462C53.783 25.9748 53.7187 26.1676 53.8473 26.3605C53.9115 26.4248 53.9758 26.4891 54.1043 26.4891C54.1685 26.4891 54.2971 26.4891 54.3613 26.4248C54.4898 26.3605 54.6183 26.3605 54.6826 26.4891C54.7469 26.6177 54.7469 26.7463 54.6183 26.8106C54.5541 26.8749 54.3613 26.9392 54.1685 26.9392ZM53.9115 29.1895C53.4617 29.1895 53.0762 28.8037 53.0762 28.3536C53.0762 28.0965 53.2047 27.8393 53.3975 27.7107C53.526 27.6464 53.6545 27.6464 53.7187 27.775C53.783 27.9036 53.783 28.0322 53.6545 28.0965C53.526 28.2251 53.4617 28.4179 53.5902 28.6108C53.7187 28.7394 53.9115 28.8037 54.1043 28.6751C54.2328 28.6108 54.3613 28.6108 54.4256 28.7394C54.4898 28.868 54.4898 28.9966 54.3613 29.0609C54.2328 29.1252 54.04 29.1895 53.9115 29.1895Z" fill="#7A83AF"/>
<path d="M57.8947 21.9242L56.6739 20.7669C56.4811 20.6383 56.2241 20.574 56.0956 20.7669L55.71 21.1527C55.5172 21.3456 55.5172 21.6027 55.71 21.7956L55.7743 21.8599L57.1237 22.8886L57.8947 21.9242ZM56.7381 19.7382C56.6096 19.7382 56.4811 19.6096 56.4811 19.481C56.4811 19.4167 56.4811 19.3524 56.5454 19.2881L56.8666 18.9667C56.9309 18.9024 57.1237 18.9024 57.1879 18.9667C57.2522 19.031 57.2522 19.2239 57.1879 19.2881L56.8666 19.6096C56.8666 19.7382 56.8024 19.7382 56.7381 19.7382Z" fill="#4D5995"/>
<path d="M39.8389 39.0907V39.9265H44.5296V30.8611L43.5015 30.7325L41.5095 30.4753V37.2905C41.5095 37.6763 41.2525 38.062 40.867 38.1263L40.4814 38.2549C40.0959 38.3835 39.8389 38.705 39.8389 39.0907Z" fill="#C3D5F0"/>
<path d="M44.0796 24.5603L44.2081 29.5752L42.4089 31.2468C42.0234 31.5683 41.5093 31.5683 41.1238 31.1825C41.1238 31.1825 41.0595 31.1182 41.0595 31.0539L39.7744 29.1894C39.1318 28.2893 38.9391 27.1963 39.1961 26.1676L40.0314 22.5671L44.0796 24.5603Z" fill="#A6ACCA"/>
<path d="M43.5017 30.7325L41.5098 30.4753V32.5327C41.8311 32.597 42.1523 32.5327 42.4094 32.3399L44.0158 30.7968L43.5017 30.7325Z" fill="#7A83AF"/>
<path d="M39.7102 29.318L40.9953 31.1826C41.2523 31.5683 41.7664 31.6969 42.1519 31.4397C42.2162 31.3754 42.2805 30.3467 42.3447 30.2824L44.1439 29.6395L44.0154 24.6246L40.5455 22.9529L39.9029 22.6315L39.7102 23.7888L39.1319 26.2319C38.8748 27.3249 39.1319 28.4179 39.7102 29.318Z" fill="#C3D5F0"/>
<path d="M36.3691 21.217C36.4333 21.2813 36.4333 21.3456 36.4976 21.3456L37.7827 22.8886C38.104 23.2744 38.6823 23.3387 39.1321 23.0815L39.9675 22.5672L40.61 22.8886L44.0799 24.496L43.8229 20.8955L43.6301 16.7164L41.3169 16.0735C40.7385 15.8806 40.096 16.0735 39.7104 16.5878L39.0679 17.3594C39.0036 17.4237 38.9393 17.488 38.8108 17.5522C38.8108 17.5522 38.7466 17.5523 38.7466 17.6165C38.6181 17.6808 38.4895 17.7451 38.361 17.7451H38.2968H38.2325H38.0397C37.4614 17.8094 37.0116 18.2595 36.9474 18.9024L36.8831 19.5454L36.5618 19.9311C36.1763 20.2526 36.112 20.7669 36.3691 21.217Z" fill="#C3D5F0"/>
<path d="M39.9675 22.6315L39.1322 23.1458C38.6824 23.403 38.1683 23.2744 37.7828 22.953L36.4977 21.4099C36.4334 21.3456 36.4334 21.2813 36.3691 21.2813C36.4334 21.217 36.4977 21.1527 36.5619 21.0241L36.9475 20.6384L37.0117 19.9954C37.076 19.4168 37.5258 18.9024 38.1041 18.8381H38.2969C38.4896 18.8381 38.6824 18.7096 38.8752 18.6453L39.0679 18.7739C39.3892 18.9667 39.6463 19.2882 39.839 19.6097L40.9314 21.6028L40.9956 21.6671C41.1884 22.0528 41.1242 22.5029 40.8671 22.7601C40.8029 22.8244 40.7386 22.8887 40.6744 22.953C40.3531 23.2744 40.0961 23.5316 39.7748 23.8531L39.9675 22.6315Z" fill="#4D5995"/>
<path d="M36.3691 21.217C36.4333 21.2813 36.4333 21.3456 36.4976 21.3456L37.7827 22.8886C38.104 23.2744 38.6823 23.3387 39.1321 23.0815L39.9675 22.5672L40.8028 21.6028C40.8671 21.5385 40.8671 21.5385 40.8671 21.4742C41.1241 21.217 41.1241 20.8312 40.9313 20.5741L39.8389 18.5167C39.6462 18.1952 39.3891 17.8737 39.0679 17.6808L38.8751 17.5522C38.8751 17.5522 38.8108 17.5522 38.8108 17.6165C38.7466 17.6808 38.6823 17.6808 38.6181 17.7451C38.5538 17.7451 38.4895 17.8094 38.4895 17.8094H38.4253H38.361H38.1683C37.5899 17.8737 37.1401 18.3238 37.0759 18.9667L37.0116 19.6097L36.5618 19.9311C36.1763 20.2526 36.112 20.7669 36.3691 21.217Z" fill="#C3D5F0"/>
<path d="M41.317 24.496C41.7668 24.496 42.1523 24.1102 42.1523 23.6602C42.1523 23.4673 42.0881 23.3387 41.9596 23.1458C41.8953 23.0172 41.7025 23.0172 41.6383 23.0815C41.5098 23.1458 41.5098 23.3387 41.574 23.403C41.7025 23.5316 41.6383 23.7888 41.5098 23.9174C41.3813 24.0459 41.1242 23.9817 40.9957 23.8531C40.9315 23.7245 40.7387 23.7245 40.6744 23.7888C40.6102 23.8531 40.5459 24.0459 40.6102 24.1102C40.8029 24.3674 40.9957 24.496 41.317 24.496ZM40.6744 26.9392C40.7387 26.9392 40.7387 26.9392 40.8029 26.9392C41.2527 26.8749 41.574 26.4248 41.5098 25.9748C41.5098 25.7819 41.3813 25.589 41.1885 25.4604C41.06 25.3961 40.9315 25.3961 40.8672 25.5247C40.8029 25.6533 40.8029 25.7819 40.9315 25.8462C41.06 25.9748 41.1242 26.1676 40.9957 26.3605C40.9315 26.4248 40.8672 26.4891 40.7387 26.4891C40.6744 26.4891 40.5459 26.4891 40.4817 26.4248C40.3531 26.3605 40.2246 26.3605 40.1604 26.4891C40.0961 26.6177 40.0961 26.7463 40.2246 26.8106C40.3531 26.8749 40.4817 26.9392 40.6744 26.9392ZM40.9957 29.1895C41.4455 29.1895 41.8311 28.8037 41.8311 28.3536C41.8311 28.0965 41.7025 27.8393 41.5098 27.7107C41.3813 27.6464 41.2527 27.6464 41.1885 27.775C41.1242 27.9036 41.1242 28.0322 41.2527 28.0965C41.3813 28.2251 41.4455 28.4179 41.317 28.6108C41.1885 28.8037 40.9957 28.8037 40.8029 28.6751C40.6744 28.6108 40.5459 28.6108 40.4817 28.7394C40.4174 28.868 40.4174 28.9966 40.5459 29.0609C40.6102 29.1252 40.8029 29.1895 40.9957 29.1895Z" fill="#7A83AF"/>
<path d="M36.9473 21.9242L38.1682 20.7669C38.3609 20.6383 38.6179 20.574 38.7465 20.7669L39.132 21.1527C39.3248 21.3456 39.3248 21.6027 39.132 21.7956L39.0677 21.8599L37.7184 22.8886L36.9473 21.9242ZM38.1682 19.7382C38.2967 19.7382 38.4252 19.6096 38.4252 19.481C38.4252 19.4167 38.4252 19.3524 38.3609 19.2881L38.0396 18.9667C37.9754 18.9024 37.7826 18.9024 37.7184 18.9667C37.6541 19.031 37.6541 19.2239 37.7184 19.2881L38.0396 19.6096C38.0396 19.7382 38.1039 19.7382 38.1682 19.7382Z" fill="#4D5995"/>
<path d="M52.4974 39.9907H49.2845L49.0918 39.605C48.9633 39.2835 49.0275 38.8977 49.2203 38.6406L49.5416 38.2548C49.6701 38.0619 49.7986 37.869 49.7343 37.6119L49.2203 29.768L52.4331 29.2537L51.9191 37.6119C51.9191 37.869 51.9833 38.0619 52.1119 38.2548L52.4974 38.7049C52.6902 38.962 52.7544 39.2835 52.6259 39.605L52.4974 39.9907ZM45.6219 39.9907H42.409L42.2163 39.605C42.0878 39.2835 42.152 38.8977 42.3448 38.6406L42.6661 38.2548C42.7946 38.0619 42.9231 37.869 42.8588 37.6119L42.3448 29.768L45.5576 29.2537L45.0436 37.6119C45.0436 37.869 45.1078 38.0619 45.2364 38.2548L45.6219 38.7049C45.8147 38.962 45.8789 39.2835 45.7504 39.605L45.6219 39.9907Z" fill="#7A83AF"/>
<path d="M51.5981 39.5407L51.4696 39.9907H48.2567L48.0639 39.605C47.9354 39.2835 47.9997 38.8977 48.1924 38.6406L48.5137 38.2548C48.6422 38.0619 48.7708 37.869 48.7065 37.6119L48.4495 33.8828L48.1924 29.768L51.4053 29.2537V30.7324V31.1825L50.3129 31.8254L51.2768 32.2755L50.9555 37.6119C50.9555 37.869 51.0198 38.0619 51.1483 38.2548L51.5338 38.7049C51.6623 38.8977 51.7266 39.2192 51.5981 39.5407Z" fill="#C3D5F0"/>
<path d="M50.3131 32.6612L51.2769 32.2755L51.4054 30.3466L51.4697 28.8036L48.2568 29.3179L48.5139 33.4328L50.3131 32.6612Z" fill="#7A83AF"/>
<path d="M52.6258 31.3753C52.433 31.6325 52.176 31.8254 51.8547 31.954L51.2764 32.2112L51.4049 30.2823C51.4691 30.4752 52.6258 31.3753 52.6258 31.3753Z" fill="#4D5995"/>
<path d="M46.7787 39.5407L46.6502 39.9907H43.4374L43.2446 39.605C43.1161 39.2835 43.1803 38.8977 43.3731 38.6406L43.6944 38.2548C43.8229 38.0619 43.9514 37.869 43.8872 37.6119L43.5659 32.3398L44.5297 32.0183L43.4374 31.3111L43.3731 30.7967L43.3089 29.768L46.5217 29.2537L46.2004 33.8828L45.9434 37.6119C45.9434 37.869 46.0076 38.0619 46.1362 38.2548L46.5217 38.7049C46.843 38.8977 46.9072 39.2192 46.7787 39.5407Z" fill="#C3D5F0"/>
<path d="M43.6303 32.2755L44.5299 32.6612L46.3291 33.4328L46.6504 28.8036L43.4375 29.3179L43.5018 30.3466L43.6303 32.2755Z" fill="#7A83AF"/>
<path d="M43.6305 32.2755C43.2449 32.0826 42.2168 31.4397 42.2168 31.4397L42.4738 31.0539C42.4738 31.0539 43.3734 30.411 43.4377 30.3467L43.6305 32.2755Z" fill="#4D5995"/>
<path d="M39.3248 39.9908H55.4533C56.4172 39.9908 57.1882 40.7624 57.1882 41.7268V45.4558C57.1882 46.4202 56.4172 47.1918 55.4533 47.1918H39.3248C38.3609 47.1918 37.5898 46.4202 37.5898 45.4558V41.7268C37.5898 40.7624 38.3609 39.9908 39.3248 39.9908Z" fill="#C3D5F0"/>
<path d="M39.5176 47.1917H55.2606V47.706C55.2606 48.2204 54.8108 48.6704 54.2967 48.6704H40.5457C40.0316 48.6704 39.5818 48.2204 39.5818 47.706V47.1917H39.5176Z" fill="#7A83AF"/>
<path d="M47.4214 46.8703C49.2668 46.8703 50.7628 45.3734 50.7628 43.527C50.7628 41.6806 49.2668 40.1837 47.4214 40.1837C45.5761 40.1837 44.0801 41.6806 44.0801 43.527C44.0801 45.3734 45.5761 46.8703 47.4214 46.8703Z" fill="#C3D5F0"/>
<path d="M47.9998 43.9771L50.5058 44.8129C50.57 44.6843 50.6343 44.5557 50.6343 44.3628L48.1925 43.5913L50.7628 42.7555C50.6986 42.6269 50.6986 42.434 50.6343 42.3054L48.064 43.1412L49.6062 40.9552C49.4777 40.8267 49.3492 40.7624 49.2206 40.6981L47.6785 42.8841V40.1837C47.6142 40.1837 47.55 40.1837 47.4214 40.1837C47.3572 40.1837 47.2929 40.1837 47.1644 40.1837V42.8841L45.6222 40.6981C45.4937 40.7624 45.3652 40.8909 45.2367 40.9552L46.7789 43.1412L44.2086 42.3054C44.1443 42.434 44.0801 42.5626 44.0801 42.7555L46.6504 43.5913L44.1443 44.3628C44.2086 44.4914 44.2086 44.6843 44.2729 44.8129L46.7789 43.9771L45.2367 46.0988C45.3652 46.2273 45.4937 46.2916 45.6222 46.3559L47.1644 44.2342V46.9346C47.2287 46.9346 47.2929 46.9346 47.4214 46.9346C47.4857 46.9346 47.55 46.9346 47.6785 46.9346V44.2985L49.2206 46.4202C49.3492 46.3559 49.4777 46.2273 49.6062 46.1631L47.9998 43.9771Z" fill="#7A83AF"/>
<path d="M47.4217 44.2985C47.812 44.2985 48.1285 43.9819 48.1285 43.5913C48.1285 43.2007 47.812 42.884 47.4217 42.884C47.0313 42.884 46.7148 43.2007 46.7148 43.5913C46.7148 43.9819 47.0313 44.2985 47.4217 44.2985Z" fill="#C3D5F0"/>
<path d="M47.4209 44.4913C46.9068 44.4913 46.457 44.0413 46.457 43.5269C46.457 43.0126 46.9068 42.5625 47.4209 42.5625C47.9349 42.5625 48.3847 43.0126 48.3847 43.5269C48.3847 44.1056 47.9349 44.4913 47.4209 44.4913ZM47.4209 43.0769C47.1639 43.0769 46.9711 43.2697 46.9711 43.5269C46.9711 43.7841 47.1639 43.977 47.4209 43.977C47.6779 43.977 47.8707 43.7841 47.8707 43.5269C47.8707 43.334 47.6779 43.0769 47.4209 43.0769Z" fill="#7A83AF"/>
<path d="M47.4216 47.1918C45.4297 47.1918 43.8232 45.5844 43.8232 43.5913C43.8232 41.5982 45.4297 39.9908 47.4216 39.9908C49.4136 39.9908 51.02 41.5982 51.02 43.5913C51.02 45.5201 49.4136 47.1918 47.4216 47.1918ZM47.4216 40.4409C45.6867 40.4409 44.273 41.8554 44.273 43.5913C44.273 45.3272 45.6867 46.7417 47.4216 46.7417C49.1566 46.7417 50.5702 45.3272 50.5702 43.5913C50.5702 41.8554 49.1566 40.4409 47.4216 40.4409Z" fill="#7A83AF"/>
<path d="M45.108 24.5603L43.3731 21.5385L41.6381 25.7176C41.3168 26.4248 41.2526 27.1963 41.4453 27.9678L42.1522 31.1825C42.1522 31.2468 42.1522 31.2468 42.1522 31.3111C42.1522 31.3754 42.1522 31.3754 42.1522 31.4397C42.2164 31.3754 42.2807 31.3754 42.3449 31.3111L44.0156 29.7038C44.0799 29.6395 44.0799 29.6395 44.1441 29.5752L45.108 24.5603ZM50.6341 29.5752L50.6984 29.6395L52.4333 31.3111C52.4976 31.3754 52.5618 31.3754 52.6261 31.4397C52.6903 31.3754 52.6903 31.3111 52.6903 31.2468L53.3972 28.0321C53.5257 27.2606 53.4614 26.4891 53.2044 25.7818L51.5337 21.7956L50.7626 22.5029L50.6341 29.5752Z" fill="#7A83AF"/>
<path d="M52.3692 19.1595V16.9092C52.3692 16.7164 52.3692 16.5878 52.305 16.3949L51.0841 16.7807L49.9274 20.9598L50.4415 23.2743C51.7266 22.2456 52.3692 20.7669 52.3692 19.1595ZM43.823 20.9598L43.6303 16.7807L42.5379 16.4592C42.5379 16.6521 42.4736 16.7807 42.4736 16.9735V19.2238C42.4736 20.6383 42.9877 21.9242 43.9515 22.9529L43.823 20.9598Z" fill="#7A83AF"/>
<path d="M52.369 19.1596C52.369 20.8312 51.5979 22.4386 50.2485 23.4673C49.5417 23.9816 48.7706 24.2388 47.871 24.2388H46.9072C46.0718 24.2388 45.2365 23.9816 44.5297 23.4673C43.1803 22.4386 42.4092 20.8312 42.4092 19.1596V16.9093L52.369 19.1596Z" fill="#7A83AF"/>
<path d="M51.5341 31.1182L48.3855 32.4684C47.7429 32.7255 47.0361 32.7255 46.4578 32.4684L43.3092 31.1182C43.1164 30.9896 42.9236 30.7967 42.8594 30.6038L42.2811 27.8392C42.1525 27.1963 42.2168 26.5533 42.4738 25.9104L44.4015 21.2169H50.4417L52.3694 25.9104C52.6264 26.489 52.6907 27.1963 52.5622 27.8392L51.9839 30.6038C51.9196 30.861 51.7268 31.0539 51.5341 31.1182Z" fill="#A6ACCA"/>
<path d="M51.5341 31.1182L48.3855 32.4684C47.7429 32.7255 47.0361 32.7255 46.4578 32.4684L43.3092 31.1182C43.1164 30.9896 42.9236 30.7967 42.8594 30.6038L42.2811 27.8392C42.1525 27.1963 42.2168 26.5533 42.4738 25.9104L44.4015 21.2169H50.4417L52.3694 25.9104C52.6264 26.489 52.6907 27.1963 52.5622 27.8392L51.9839 30.6038C51.9196 30.861 51.7268 31.0539 51.5341 31.1182Z" fill="#C3D5F0"/>
<path d="M50.4415 21.2169H44.4014L43.7588 22.76C44.0158 23.0171 44.2728 23.2743 44.5941 23.5315C45.301 24.0459 46.072 24.303 46.9716 24.303H47.9355C48.7708 24.303 49.6062 24.0459 50.313 23.5315C50.6343 23.2743 50.8913 23.0171 51.1483 22.76L50.4415 21.2169Z" fill="#7A83AF"/>
<path d="M49.6706 22.76C49.1566 23.1458 48.514 23.3387 47.9357 23.3387H46.9718C46.3293 23.3387 45.6867 23.1458 45.2369 22.76C44.1445 21.9242 43.502 20.574 43.502 19.2239V16.9736C43.502 15.9449 44.3373 15.1733 45.3012 15.1733H49.6706C50.6987 15.1733 51.4698 16.0092 51.4698 16.9736V19.2239C51.4056 20.574 50.763 21.9242 49.6706 22.76Z" fill="#C3D5F0"/>
<path d="M46.2646 20.9597C46.2646 21.6027 46.843 22.117 47.4855 22.0527C48.0638 22.0527 48.5779 21.5384 48.5779 20.9597C47.8711 20.5097 46.9715 20.5097 46.2646 20.9597Z" fill="#4D5995"/>
<path d="M44.9799 27.2606C44.5301 27.2606 44.1445 26.8748 44.1445 26.4248C44.1445 26.2962 44.273 26.1676 44.4016 26.1676C44.5301 26.1676 44.6586 26.2962 44.6586 26.4248C44.6586 26.6177 44.7871 26.7462 44.9799 26.7462C45.1726 26.7462 45.3012 26.6177 45.3012 26.4248C45.3012 26.2962 45.4297 26.1676 45.5582 26.1676C45.6867 26.1676 45.8152 26.2962 45.8152 26.4248C45.8152 26.8748 45.4939 27.2606 44.9799 27.2606ZM47.4216 27.2606C46.9718 27.2606 46.5863 26.8748 46.5863 26.4248C46.5863 26.2962 46.7148 26.1676 46.8433 26.1676C46.9718 26.1676 47.1004 26.2962 47.1004 26.4248C47.1004 26.6177 47.2289 26.7462 47.4216 26.7462C47.6144 26.7462 47.7429 26.6177 47.7429 26.4248C47.7429 26.2962 47.8714 26.1676 48 26.1676C48.1285 26.1676 48.257 26.2962 48.257 26.4248C48.257 26.8748 47.8714 27.2606 47.4216 27.2606ZM49.8634 27.2606C49.4136 27.2606 49.0281 26.8748 49.0281 26.4248C49.0281 26.2962 49.1566 26.1676 49.2851 26.1676C49.4136 26.1676 49.5421 26.2962 49.5421 26.4248C49.5421 26.6177 49.6706 26.7462 49.8634 26.7462C50.0562 26.7462 50.1847 26.6177 50.1847 26.4248C50.1847 26.2962 50.3132 26.1676 50.4417 26.1676C50.5702 26.1676 50.6988 26.2962 50.6988 26.4248C50.6988 26.8748 50.3132 27.2606 49.8634 27.2606ZM48.8996 29.1894C48.4498 29.1894 48.0642 28.8037 48.0642 28.3536C48.0642 28.225 48.1927 28.0964 48.3212 28.0964C48.4498 28.0964 48.5783 28.225 48.5783 28.3536C48.5783 28.5465 48.7068 28.6751 48.8996 28.6751C49.0923 28.6751 49.2208 28.5465 49.2208 28.3536C49.2208 28.225 49.3494 28.0964 49.4779 28.0964C49.6064 28.0964 49.7349 28.225 49.7349 28.3536C49.7349 28.8679 49.3494 29.1894 48.8996 29.1894ZM46.008 29.1894C45.5582 29.1894 45.1726 28.8037 45.1726 28.3536C45.1726 28.225 45.3012 28.0964 45.4297 28.0964C45.5582 28.0964 45.6867 28.225 45.6867 28.3536C45.6867 28.5465 45.8152 28.6751 46.008 28.6751C46.2008 28.6751 46.3293 28.5465 46.3293 28.3536C46.3293 28.225 46.4578 28.0964 46.5863 28.0964C46.7148 28.0964 46.8433 28.225 46.8433 28.3536C46.7791 28.8679 46.4578 29.1894 46.008 29.1894ZM47.4216 31.1182C46.9718 31.1182 46.5863 30.7325 46.5863 30.2824C46.5863 30.1538 46.7148 30.0252 46.8433 30.0252C46.9718 30.0252 47.1004 30.1538 47.1004 30.2824C47.1004 30.4753 47.2289 30.6039 47.4216 30.6039C47.6144 30.6039 47.7429 30.4753 47.7429 30.2824C47.7429 30.1538 47.8714 30.0252 48 30.0252C48.1285 30.0252 48.257 30.1538 48.257 30.2824C48.257 30.7968 47.8714 31.1182 47.4216 31.1182Z" fill="#7A83AF"/>
<path d="M49.863 17.6165L49.4775 17.2951C49.092 17.0379 48.5779 16.9736 48.1924 17.2951L48.0639 17.4236C47.7426 17.6808 47.614 18.1952 47.8711 18.5166V18.5809L47.614 18.9667C47.5498 19.0953 47.4213 19.0953 47.2928 19.031L47.2285 18.9667L46.9715 18.6452V18.5809C47.2285 18.1952 47.1 17.7451 46.7787 17.4879L46.6502 17.3593C46.2647 17.1022 45.7506 17.1022 45.3651 17.3593L44.9795 17.6808C44.851 17.7451 44.851 17.938 44.9153 18.0023C44.9795 18.0666 45.1723 18.1309 45.2365 18.0666L45.6221 17.7451C45.8149 17.6165 46.0719 17.6165 46.2647 17.7451L46.3932 17.8737C46.5217 18.0023 46.5859 18.1952 46.4574 18.3238C46.3289 18.5166 46.3289 18.7738 46.4574 18.9667L46.7144 19.3525C46.7787 19.481 46.9072 19.5453 47.0357 19.6096V20.3169C46.843 20.574 46.5859 20.7669 46.3289 20.8312H46.2647C45.9434 20.8955 45.6863 20.7026 45.5578 20.4455C45.4293 20.1883 45.4293 19.8025 45.6863 19.6096C45.7506 19.481 45.7506 19.3525 45.6863 19.2882C45.5578 19.2239 45.4293 19.2239 45.3651 19.2882C45.0438 19.6739 44.9153 20.2526 45.1723 20.7026C45.3651 21.1527 45.8791 21.4099 46.3932 21.3456C46.4574 21.3456 46.4574 21.3456 46.5217 21.3456C46.843 21.2813 47.1642 21.0884 47.357 20.8312C47.614 21.0884 47.8711 21.2813 48.1924 21.3456C48.2566 21.3456 48.2566 21.3456 48.3209 21.3456C48.3851 21.3456 48.4494 21.3456 48.4494 21.3456C48.8992 21.3456 49.2847 21.0884 49.4775 20.7026C49.7345 20.2526 49.6703 19.6739 49.2847 19.2882C49.2205 19.1596 49.0277 19.1596 48.9634 19.2882C48.8992 19.4167 48.8349 19.5453 48.9634 19.6096C49.1562 19.8668 49.2205 20.1883 49.092 20.4455C48.9634 20.7026 48.7064 20.8955 48.3851 20.8312H48.3209C47.9996 20.7669 47.7426 20.574 47.614 20.3169V19.6096C47.7426 19.5453 47.8711 19.481 47.9353 19.3525L48.1924 18.9667C48.3209 18.7738 48.3209 18.5166 48.1924 18.3238C48.0638 18.1952 48.1281 17.938 48.2566 17.8737L48.3851 17.7451C48.5779 17.6165 48.8349 17.6165 49.0277 17.7451L49.4132 18.0666C49.5418 18.1309 49.6703 18.1309 49.7345 18.0023C49.9916 17.8737 49.9273 17.6808 49.863 17.6165Z" fill="#4D5995"/>
</svg>
