<svg width="85" height="93" viewBox="0 0 85 93" fill="none" xmlns="http://www.w3.org/2000/svg">
<g id="Group 955">
<path id="Rectangle 334" fill-rule="evenodd" clip-rule="evenodd" d="M0 40.8122C0 39.3451 1.18933 38.1558 2.65645 38.1558H81.4719C82.939 38.1558 84.1283 39.3451 84.1283 40.8122V90.3434C84.1283 91.8105 82.939 92.9999 81.4719 92.9999H2.65645C1.18933 92.9999 0 91.8105 0 90.3434V40.8122Z" fill="#D2E0F4"/>
<g id="Group 953">
<path id="Ellipse 135" fill-rule="evenodd" clip-rule="evenodd" d="M42.0642 56.4311C57.6472 56.4311 70.2797 43.7986 70.2797 28.2155C70.2797 12.6325 57.6472 0 42.0642 0C26.4812 0 13.8486 12.6325 13.8486 28.2155C13.8486 43.7986 26.4812 56.4311 42.0642 56.4311Z" fill="white"/>
<path id="Ellipse 136" fill-rule="evenodd" clip-rule="evenodd" d="M42.0642 53.2035C55.8647 53.2035 67.0522 42.016 67.0522 28.2155C67.0522 14.415 55.8647 3.22754 42.0642 3.22754C28.2637 3.22754 17.0762 14.415 17.0762 28.2155C17.0762 42.016 28.2637 53.2035 42.0642 53.2035Z" fill="#B4CBEC"/>
<g id="Group 952">
<g id="Group 951">
<mask id="mask0_1489_29901" style="mask-type:luminance" maskUnits="userSpaceOnUse" x="13" y="0" width="58" height="57">
<path id="Ellipse 137" fill-rule="evenodd" clip-rule="evenodd" d="M42.0642 56.4311C57.6472 56.4311 70.2797 43.7986 70.2797 28.2155C70.2797 12.6325 57.6472 0 42.0642 0C26.4812 0 13.8486 12.6325 13.8486 28.2155C13.8486 43.7986 26.4812 56.4311 42.0642 56.4311Z" fill="white"/>
</mask>
<g mask="url(#mask0_1489_29901)">
<g id="Group 950">
<path id="Path 1149" fill-rule="evenodd" clip-rule="evenodd" d="M50.5102 45.9793H50.5053C49.9769 45.5795 49.424 45.2238 48.8419 44.9028C48.8264 44.8932 48.8118 44.8824 48.7922 44.8777C46.037 43.3575 44.1708 40.4239 44.1708 37.0515L39.998 37.032C39.998 40.4142 38.1172 43.3624 35.3367 44.8777C35.3367 44.8777 35.3318 44.8777 35.3269 44.8824C34.7399 45.2041 34.1764 45.564 33.6431 45.9597C30.1868 48.5319 27.9502 52.6451 27.9502 57.287H56.1787C56.1787 52.6549 53.9518 48.5514 50.5102 45.9792L50.5102 45.9793Z" fill="white"/>
<path id="Path 1150" fill-rule="evenodd" clip-rule="evenodd" d="M56.1785 57.2843H27.9492C27.9492 52.6434 30.1867 48.53 33.6429 45.9579C34.1763 45.5623 34.7389 45.2024 35.3267 44.8815C35.3316 44.8759 35.3365 44.8759 35.3365 44.8759C35.7908 44.6243 36.2256 44.3376 36.6254 44.012C38.0079 45.4294 39.9384 46.3081 42.0765 46.3081C44.2097 46.3081 46.1353 45.4294 47.5178 44.0168C47.9127 44.3425 48.3426 44.6291 48.792 44.8759C48.8116 44.8815 48.8262 44.8914 48.8409 44.9011C49.4239 45.2219 49.9767 45.5776 50.5051 45.9775H50.51C53.9517 48.5496 56.1785 52.6531 56.1785 57.2843L56.1785 57.2843Z" fill="#4D5995"/>
<path id="Path 1151" fill-rule="evenodd" clip-rule="evenodd" d="M31.2314 15.9939V27.0802C31.2314 34.5797 37.8151 40.6587 42.0644 40.6587C46.3146 40.6587 52.8982 34.5797 52.8982 27.0802V15.9939H31.2314Z" fill="white"/>
<path id="Path 1152" fill-rule="evenodd" clip-rule="evenodd" d="M51.1327 13.953C48.7715 10.9974 45.1874 9.10693 41.1783 9.10693C34.0556 9.10693 28.2861 15.0522 28.2861 22.3842C28.2861 26.276 29.9088 29.7748 32.4988 32.2018C31.8312 30.527 31.4591 28.6503 31.4591 26.6685C31.4591 23.4833 32.4264 20.566 34.036 18.3229C35.7426 19.0809 38.5093 19.3561 41.5446 18.9376C44.5531 18.5256 47.1171 17.5316 48.5623 16.3478C51.1978 18.6755 52.9117 22.4298 52.9117 26.6685C52.9117 28.84 52.4672 30.8805 51.6693 32.6725C54.2137 31.6198 56.0839 27.8654 56.0839 23.3978C56.0839 18.6168 53.9385 14.6729 51.1327 13.953V13.953Z" fill="#21307A"/>
</g>
</g>
</g>
</g>
</g>
<g id="Group 954">
<path id="Rectangle 335" fill-rule="evenodd" clip-rule="evenodd" d="M11.2197 69.8334C11.2197 69.429 11.5476 69.1011 11.9521 69.1011H72.1763C72.5808 69.1011 72.9087 69.429 72.9087 69.8334C72.9087 70.2379 72.5808 70.5658 72.1763 70.5658H11.9521C11.5476 70.5658 11.2197 70.2379 11.2197 69.8334Z" fill="white"/>
<path id="Rectangle 336" fill-rule="evenodd" clip-rule="evenodd" d="M11.2197 62.3494C11.2197 61.8527 11.6224 61.45 12.1192 61.45H72.0092C72.506 61.45 72.9087 61.8527 72.9087 62.3494V64.3536C72.9087 64.8503 72.506 65.253 72.0092 65.253H12.1192C11.6224 65.253 11.2197 64.8503 11.2197 64.3536V62.3494Z" fill="#4D5995"/>
<path id="Rectangle 337" fill-rule="evenodd" clip-rule="evenodd" d="M11.2197 74.9477C11.2197 74.5432 11.5476 74.2153 11.9521 74.2153H41.332C41.7364 74.2153 42.0643 74.5432 42.0643 74.9477C42.0643 75.3521 41.7364 75.68 41.332 75.68H11.9521C11.5476 75.68 11.2197 75.3521 11.2197 74.9477Z" fill="white"/>
<path id="Rectangle 338" fill-rule="evenodd" clip-rule="evenodd" d="M11.2197 80.1276C11.2197 79.7231 11.5476 79.3953 11.9521 79.3953H41.332C41.7364 79.3953 42.0643 79.7231 42.0643 80.1276C42.0643 80.5321 41.7364 80.8599 41.332 80.8599H11.9521C11.5476 80.8599 11.2197 80.5321 11.2197 80.1276Z" fill="white"/>
<path id="Rectangle 339" fill-rule="evenodd" clip-rule="evenodd" d="M11.2197 84.8942C11.2197 84.4897 11.5476 84.1619 11.9521 84.1619H41.332C41.7364 84.1619 42.0643 84.4897 42.0643 84.8942C42.0643 85.2987 41.7364 85.6265 41.332 85.6265H11.9521C11.5476 85.6265 11.2197 85.2987 11.2197 84.8942Z" fill="white"/>
</g>
<path id="Path 1153" fill-rule="evenodd" clip-rule="evenodd" d="M61.5524 80.8082C60.949 81.0272 60.3384 81.1038 59.7058 81.0443L59.6178 80.7912C59.5519 80.6015 59.2376 80.5607 59.1928 80.7912C59.1781 80.8644 59.0284 81.5084 58.7849 81.1918C58.6416 81.0053 58.7214 80.7138 58.7466 80.5028C58.7743 80.2725 58.771 79.9801 58.6139 79.7913C58.434 79.5739 57.9365 79.3532 57.7061 79.6399C57.347 80.0861 57.8876 80.6901 57.4618 81.1737C57.2127 81.4572 56.7649 81.2755 56.5353 81.0443C56.8398 80.5321 56.7738 79.9534 56.5075 79.4364C56.4319 79.2905 56.1851 79.2833 56.1119 79.4364C55.8945 79.8922 55.7748 80.5087 55.9653 80.9946C55.7626 81.1355 55.4849 81.1665 55.27 81.0387C55.6608 80.4411 55.8114 79.679 55.5997 78.8981C55.5411 78.684 55.2757 78.6784 55.16 78.8411C54.8026 79.3444 54.468 79.8703 54.5071 80.5119C54.5193 80.7089 54.5763 80.8905 54.6691 81.0476C54.3206 81.4418 53.828 81.7079 53.2581 81.7633C53.2491 81.7308 53.241 81.6974 53.2312 81.6647C53.1929 81.5321 53.149 81.401 53.1042 81.2707C53.1042 80.963 53.1091 80.6552 53.1221 80.3483C53.1701 80.2725 53.2247 80.196 53.2809 80.1154C53.5398 79.7409 53.7612 79.341 53.9623 78.9331C54.7643 77.3047 55.0713 75.446 54.8775 73.6457C54.8547 73.4364 54.6455 73.3493 54.4818 73.4821C53.9941 73.8737 53.7718 74.4395 53.587 75.0201C53.3452 75.7797 53.1604 76.5581 53.0106 77.3415C52.8314 78.2736 52.7231 79.2189 52.6767 80.1667C52.658 80.1935 52.6401 80.2204 52.6214 80.2465C52.3592 80.6145 52.509 81.0158 52.6507 81.3986C52.6523 81.5981 52.6564 81.7975 52.6637 81.9961C52.6678 82.1249 52.763 82.2144 52.8892 82.2218L52.899 82.2226C53.0016 82.6435 53.0741 83.0725 53.1221 83.5025C53.2581 84.7351 53.1351 85.985 52.8013 87.1769C52.3486 86.9653 52.2875 84.5812 52.2745 84.2604C52.2419 83.4242 52.3038 82.6011 52.3673 81.7724C52.4333 81.7332 52.4789 81.6575 52.461 81.5582L52.3975 81.2129C52.3592 81.0053 52.0164 81.0046 51.9789 81.2129C51.799 82.2104 51.7835 83.25 51.812 84.2604C51.8275 84.789 51.8723 85.3166 51.9333 85.8417C51.983 86.2675 52.0115 86.7243 52.1793 87.1225C52.3747 87.5866 53.0504 87.9765 53.2491 87.3154C53.5227 86.4018 53.6383 85.4404 53.6432 84.4892C53.6472 83.7232 53.5471 82.9554 53.372 82.2095C54.0136 82.1354 54.5762 81.8359 54.9874 81.3978C55.0778 81.4629 55.1788 81.5174 55.2887 81.5573C55.5793 81.6647 55.9433 81.5678 56.2169 81.3782C56.2657 81.4262 56.3178 81.4726 56.3781 81.5134C56.9293 81.8838 57.8046 81.83 58.0285 81.0965C58.14 80.7302 58.1042 80.3661 58.0383 79.9948C58.1099 79.9557 58.1775 79.9714 58.2393 80.0429C58.3729 80.1489 58.298 80.5185 58.2817 80.665C58.2573 80.8784 58.2418 81.1193 58.3493 81.3156C58.4918 81.5752 58.7018 81.7698 59.012 81.7536C59.2001 81.7438 59.3361 81.6071 59.4338 81.436C59.4647 81.4531 59.5014 81.4645 59.5437 81.4701C60.2708 81.5646 60.9816 81.4872 61.6712 81.2389C61.9407 81.142 61.8243 80.7098 61.5524 80.8083L61.5524 80.8082ZM53.4168 77.6304C53.5349 76.9562 53.6953 76.291 53.8793 75.6325C54.0194 75.1349 54.1577 74.6081 54.4558 74.1879C54.5461 76.0215 54.0918 77.7819 53.1889 79.3598C53.241 78.7809 53.3167 78.2044 53.4168 77.6304V77.6304ZM55.9432 79.6342C55.9279 79.9932 55.5991 80.3338 55.0174 80.6342C54.7434 80.3223 55.2671 79.9559 55.9432 79.6342Z" fill="#21307A"/>
</g>
</svg>
