<svg width="92" height="92" viewBox="0 0 92 92" fill="none" xmlns="http://www.w3.org/2000/svg">
<path fill-rule="evenodd" clip-rule="evenodd" d="M92 49.4581V41.5421H88.1415C87.7606 40.0045 87.1579 38.5556 86.3705 37.2271L88.9276 34.67L83.3302 29.0724L80.7897 31.6117C79.4586 30.8126 78.0031 30.1997 76.4579 29.8099V26H68.5421V29.8099C66.9967 30.1997 65.5413 30.8126 64.2102 31.6117L61.67 29.0724L56.0724 34.67L58.6295 37.2271C57.8421 38.5556 57.2394 40.0045 56.8585 41.5421H53V49.4581H56.888C57.2791 50.9789 57.8868 52.4139 58.677 53.7259L56.0724 56.3302L61.67 61.9278L64.291 59.3066C65.6003 60.0835 67.0275 60.6813 68.5421 61.0635V65.0002H76.4579V61.0635C77.9725 60.6813 79.3996 60.0835 80.709 59.3066L83.3302 61.9278L88.9276 56.3302L86.3243 53.7259C87.113 52.4139 87.7221 50.9789 88.1133 49.4581H92ZM72.5006 56.9226C66.1569 56.9226 61.0148 51.7792 61.0148 45.4366C61.0148 39.0929 66.1569 33.9508 72.5006 33.9508C78.8433 33.9508 83.9867 39.0929 83.9867 45.4366C83.9867 51.7792 78.8433 56.9226 72.5006 56.9226Z" fill="#4D5995"/>
<circle cx="72" cy="46" r="5" stroke="#4D5995" stroke-width="4"/>
<rect y="7.25" width="65.7506" height="77.8273" rx="2.6837" fill="#D2E0F4"/>
<path d="M13 77H21" stroke="#4D5995" stroke-linecap="round" stroke-linejoin="round"/>
<path d="M9.10824 70.2357C8.40965 69.636 8.10302 69.2695 8.01205 68.3893C7.92582 67.5551 8.31112 66.695 8.8904 66.2556C9.69598 65.6445 10.6526 66.2194 11.1875 67.0299C11.7672 67.9082 12.2684 70.4473 12.3068 71.5361C12.3503 72.7725 12.1501 73.8957 11.6348 74.9703C11.2815 75.7073 10.7593 76.5762 10.0643 76.8705C9.43451 77.1372 8.75009 77.0378 8.62333 76.1355C8.46797 75.0296 8.89606 73.9521 9.36407 73.0381C9.98458 71.8263 10.7682 70.823 11.8534 70.2357C16.0382 67.9711 13.5671 75.2632 14.955 75.2632C16.3428 75.2632 16.4324 71.6809 17.4054 72.2535C18.3784 72.8262 16.5182 76.3826 20 74.1351" stroke="#4D5995" stroke-linecap="round" stroke-linejoin="round"/>
<rect x="7" y="18.25" width="5" height="5" rx="1" fill="white"/>
<rect x="7" y="29.25" width="5" height="5" rx="1" fill="white"/>
<rect x="7" y="40.25" width="5" height="5" rx="1" fill="white"/>
<rect x="7" y="51.25" width="5" height="5" rx="1" fill="white"/>
<rect x="16" y="18.25" width="41" height="2" rx="0.670925" fill="white"/>
<rect x="16" y="21.25" width="29" height="2" rx="0.670925" fill="white"/>
<rect x="16" y="29.25" width="42" height="2" rx="0.670925" fill="white"/>
<rect x="16" y="32.25" width="42" height="2" rx="0.670925" fill="white"/>
<rect x="16" y="40.25" width="42" height="2" rx="0.670925" fill="white"/>
<rect x="16" y="43.25" width="34" height="2" rx="0.670925" fill="white"/>
<rect x="16" y="51.25" width="42" height="2" rx="0.670925" fill="white"/>
<rect x="16" y="54.25" width="42" height="2" rx="0.670925" fill="white"/>
<rect x="16" y="57.25" width="22" height="2" rx="0.670925" fill="white"/>
<path d="M49 1.25H70C71.1046 1.25 72 2.14543 72 3.25V21.75" stroke="#4D5995" stroke-width="2" stroke-linecap="round"/>
<path d="M49 90.75H70C71.1046 90.75 72 89.8546 72 88.75V70.25" stroke="#4D5995" stroke-width="2" stroke-linecap="round"/>
</svg>
